<?xml version="1.0" encoding="UTF-8" standalone="no"?>
<!-- Created with Inkscape (http://www.inkscape.org/) -->
<svg
   xmlns:dc="http://purl.org/dc/elements/1.1/"
   xmlns:cc="http://creativecommons.org/ns#"
   xmlns:rdf="http://www.w3.org/1999/02/22-rdf-syntax-ns#"
   xmlns:svg="http://www.w3.org/2000/svg"
   xmlns="http://www.w3.org/2000/svg"
   xmlns:sodipodi="http://sodipodi.sourceforge.net/DTD/sodipodi-0.dtd"
   xmlns:inkscape="http://www.inkscape.org/namespaces/inkscape"
   id="svg2440"
   sodipodi:version="0.32"
   inkscape:version="0.46"
   width="256.41245"
   height="290.7887"
   version="1.0"
   sodipodi:docname="logo.svg"
   inkscape:output_extension="org.inkscape.output.svg.inkscape"
   style="display:inline">
  <metadata
     id="metadata2445">
    <rdf:RDF>
      <cc:Work
         rdf:about="">
        <dc:format>image/svg+xml</dc:format>
        <dc:type
           rdf:resource="http://purl.org/dc/dcmitype/StillImage" />
      </cc:Work>
    </rdf:RDF>
  </metadata>
  <defs
     id="defs2443">
    <inkscape:perspective
       sodipodi:type="inkscape:persp3d"
       inkscape:vp_x="0 : 526.18109 : 1"
       inkscape:vp_y="0 : 1000 : 0"
       inkscape:vp_z="744.09448 : 526.18109 : 1"
       inkscape:persp3d-origin="372.04724 : 350.78739 : 1"
       id="perspective2447" />
  </defs>
  <sodipodi:namedview
     inkscape:window-height="826"
     inkscape:window-width="1600"
     inkscape:pageshadow="2"
     inkscape:pageopacity="0.0"
     guidetolerance="10.0"
     gridtolerance="10.0"
     objecttolerance="10.0"
     borderopacity="1.0"
     bordercolor="#666666"
     pagecolor="#ffffff"
     id="base"
     showgrid="false"
     showguides="true"
     inkscape:guide-bbox="true"
     inkscape:zoom="1.0977778"
     inkscape:cx="103.52688"
     inkscape:cy="107.49797"
     inkscape:window-x="0"
     inkscape:window-y="24"
     inkscape:current-layer="svg2440">
    <sodipodi:guide
       orientation="0,1"
       position="415.38462,467.30769"
       id="guide2842" />
  </sodipodi:namedview>
  <g
     inkscape:groupmode="layer"
     id="layer2"
     inkscape:label="trazado"
     style="display:none"
     transform="translate(-22.377045,-95.344377)" />
  <path
     style="fill:#502d16"
     d=""
     id="path2694" />
  <g
     id="g2776"
     transform="translate(-24.198902,-81.68041)">
    <path
       d="M 62.398785,342.73785 C 62.171053,361.18421 62.171053,361.18421 62.171053,361.18421 C 62.171053,361.18421 29.832996,355.49089 26.417004,350.93623 C 23.001012,346.38158 25.733806,324.06377 25.733806,324.06377 C 25.733806,324.06377 50.931491,335.22267 66.725709,335.22267 C 95.875506,335.22267 94.25457,346.40404 115.46053,353.21356 C 135.72875,359.72196 129.57996,359.55843 143.24393,361.41194 C 156.81394,363.2527 204.73178,361.18421 204.73178,361.18421 C 204.73178,361.18421 251.37605,355.04042 260.75405,353.89676 C 270.09109,352.7581 280.11134,350.7085 280.11134,350.7085 L 279.65587,358.90688 C 279.65587,358.90688 254.83299,365.2834 237.29757,367.333 C 224.98095,368.7726 182.18624,372.57085 161.23482,371.88765 C 140.2834,371.20445 139.14474,372.11538 127.7581,369.61032 C 116.37146,367.10526 97.241903,357.08502 85.62753,350.93623 C 74.013158,344.78745 71.508097,343.19332 67.63664,342.05466 C 63.765182,340.91599 62.171053,343.42105 62.398785,342.73785 z M 75.151822,335.90587 C 75.037956,331.69281 68.205972,319.85071 77.884615,293.7753 C 81.217687,284.79561 78.567814,273.73482 78.567814,273.73482 C 78.567814,273.73482 134.71865,300.58538 144.15486,261.66498 C 146.14607,253.45209 141.19433,244.58502 138.917,237.98077 C 136.63968,231.37652 133.22368,222.9504 137.32287,219.07895 C 141.42206,215.20749 150.02457,216.21054 151.44231,222.49494 C 152.9089,228.99585 152.35324,230.23785 154.40283,245.04049 C 156.76943,262.1326 172.62146,275.55668 172.62146,275.55668 C 172.62146,275.55668 193.11741,293.7753 195.62247,295.8249 C 198.12753,297.87449 213.33759,311.60723 222.72267,314.27125 C 230.54244,316.49094 241.39676,315.63765 249.59514,316.32085 C 257.79352,317.00405 262.925,318.88895 269.18016,323.15284 C 273.64207,326.19435 275.32895,328.84615 275.78441,334.31174 C 276.23987,339.77733 274.87348,351.16397 274.87348,351.16397 M 32.367312,255.79613 C 54.63796,274.12861 71.820006,272.0603 71.820006,272.0603 C 71.820006,272.0603 74.197132,281.1121 71.17588,291.38407 C 66.544883,307.12903 64.959266,315.11844 66.505969,329.38748 C 67.032167,334.20316 68.760409,335.34564 68.760409,335.34564 M 28.341527,324.39551 C 23.832648,309.90268 25.765024,304.74967 27.214307,295.40985 C 28.66359,286.07003 31.723186,273.02649 31.884218,268.83967 C 32.045249,264.65286 31.562155,252.89756 34.138657,249.999 C 36.71516,247.10043 41.270492,241.35701 44.444667,236.63339 C 46.067814,234.21792 40.957234,237.69056 41.149246,233.04827 C 41.330276,228.67149 39.188563,223.77851 40.901976,222.14057 C 42.615389,220.50262 44.213379,215.97471 41.659968,214.2891 C 39.186399,212.65619 36.824514,209.55589 38.470777,207.21521 C 41.895505,202.34588 38.260812,201.20385 37.677996,198.69668 C 37.339563,197.2408 39.113176,191.77697 41.224039,190.25635 C 44.778174,187.69603 39.164963,180.57018 37.198254,175.28043 C 36.068906,172.24288 38.117277,172.73017 38.003411,167.55092 C 37.981697,166.58497 35.426909,166.10164 35.426909,162.23688 C 35.426909,158.37213 37.025247,157.10777 37.198254,154.82944 C 37.462536,151.34913 36.002776,146.50921 37.484596,143.34905 C 39.23707,139.61168 47.02117,136.31083 47.504264,135.34464 C 47.987358,134.37845 46.860138,127.93719 46.699107,117.14809 C 46.538075,106.35899 41.707133,91.86616 40.418882,88.484501 C 39.130631,85.102841 58.578791,83.65922 61.352964,83.170464 C 68.972409,81.828065 70.189576,81.584657 95.33059,84.136653 C 120.61355,86.703057 134.13916,96.697102 148.14889,98.307416 C 162.15862,99.91773 166.18441,101.52804 166.18441,101.52804 C 166.18441,101.52804 163.43485,144.73987 157.16665,146.61684 C 155.08693,147.2396 153.05936,147.25149 152.65777,149.03231 C 150.86751,156.97101 156.58922,150.6884 157.00562,152.575 C 158.4008,158.89625 157.44141,159.60945 154.42912,162.55895 C 151.47441,165.45206 155.73867,167.34823 156.52252,169.32226 C 157.42318,171.59045 158.10933,177.03867 155.8784,178.82312 C 150.04666,183.48775 156.36492,183.66716 156.52252,185.74747 C 156.74719,188.71303 155.56587,192.14339 151.69158,192.99388 C 145.48941,194.35538 154.7815,200.66482 154.59015,202.49473 C 153.87512,209.3328 151.00183,206.7355 150.88642,209.41908 C 150.53194,217.5476 151.8088,214.48782 152.65777,216.1824 C 156.35544,223.56307 154.75118,245.97321 154.75118,245.97321 M 34.501518,250.39221 C 38.259109,255.40233 49.873482,262.46204 61.487854,265.19484 C 73.102227,267.92763 79.364879,267.24443 89.043522,270.20496 C 98.722166,273.16549 111.24747,275.44281 115.23279,275.32895 C 119.21812,275.21508 126.0501,274.98735 130.26316,271.57136 C 134.47621,268.15536 138.57541,264.73937 139.2586,258.36285 C 139.9418,251.98634 138.11994,250.73381 134.81781,240.14423 C 131.51569,229.55466 129.35223,222.15334 132.65435,217.14322 C 135.95648,212.1331 151.10071,214.63816 151.10071,214.63816 M 44.76673,236.1503 C 58.776462,238.08267 62.480184,238.40474 71.981037,235.6672 C 81.48189,232.92967 75.684759,228.42079 61.030902,228.58182 C 46.377044,228.74285 57.649242,222.14057 59.259556,221.01335 C 60.86987,219.88613 75.523728,215.69931 64.573593,214.73312 C 53.623457,213.76693 52.507229,211.81641 52.335206,209.58012 C 52.013143,205.3933 66.344937,204.92023 67.633189,202.3337 C 69.284402,199.01843 60.86987,200.72339 55.07274,198.46895 C 49.275609,196.21451 47.665295,192.02769 50.402829,189.45119 C 53.140363,186.87469 52.979332,188.9681 62.158121,187.67984 C 71.336911,186.39159 64.25153,181.88271 57.005117,182.68787 C 49.758703,183.49303 47.343232,177.85693 48.953546,174.15321 C 50.56386,170.44948 67.472158,172.0598 59.259556,170.12742 C 51.046955,168.19505 45.571887,164.81339 46.054981,159.33832 C 46.538075,153.86325 52.657269,156.43975 57.005117,154.50738 C 61.352964,152.575 68.438346,150.15953 65.539781,148.06612 C 62.641216,145.97271 55.716865,149.03231 51.046955,145.97271 C 46.377044,142.91311 42.995385,140.49765 45.249824,137.11599 C 47.504264,133.73433 55.716865,136.79392 60.708839,134.37845 C 65.700812,131.96298 99.441885,132.87669 110.95064,135.6667 C 116.26467,136.95495 116.10364,136.79392 124.31624,136.31083 C 132.52884,135.82773 131.40162,141.94693 119.4853,144.04033 C 107.56898,146.13374 109.34032,146.61684 111.11167,149.83747 C 112.88301,153.05809 125.76553,149.67643 132.52884,152.89706 C 139.29216,156.11769 136.55463,160.30451 128.82512,161.59276 C 121.09561,162.88101 114.17126,161.43173 114.49333,165.29648 C 114.81539,169.16123 132.74632,166.73972 132.52884,171.41567 C 132.20678,178.34002 114.17126,174.47527 114.17126,181.72168 C 114.17126,188.9681 132.8509,181.23859 133.17297,188.96809 C 133.49503,196.6976 114.81539,191.86666 114.81539,197.98585 C 114.81539,204.10505 131.53516,200.23586 131.24059,205.07124 C 130.84819,211.5125 112.34271,210.15219 113.04404,213.6059 C 113.82477,217.45063 128.97148,216.58492 128.01997,217.79272 C 118.23118,230.21813 73.591351,215.37725 98.873281,237.11649 C 107.40015,244.44851 126.08759,246.45631 132.85091,254.02478 C 139.61423,261.59326 123.67212,255.152 122.0618,254.50788 C 120.45149,253.86375 99.034313,243.23568 90.499648,236.95545 C 81.964984,230.67523 75.523728,234.21792 75.523728,234.21792 M 127.53687,209.41908 C 151.20849,207.9698 151.85261,207.9698 151.85261,207.9698 M 128.34203,202.3337 C 152.8188,200.24029 152.17468,198.79101 152.17468,198.79101 M 127.05378,194.28213 C 149.59817,193.96007 150.40333,193.79904 150.40333,193.79904 M 127.37584,184.94231 C 150.88642,183.17097 155.71737,184.94231 155.71737,184.94231 M 126.24862,176.24662 C 154.42912,179.46724 153.78499,180.2724 153.78499,180.2724 M 128.50306,168.67814 C 157.48871,170.44948 157.64974,172.70392 157.64974,172.70392 M 128.50306,151.76984 C 152.8188,152.575 153.62396,153.21912 153.62396,153.21912 M 132.52884,160.94863 C 153.46293,160.14347 154.10705,163.20307 154.10705,163.20307 M 123.83315,143.23518 C 144.92827,143.55724 148.63198,142.10796 149.59817,144.20137 C 150.56436,146.29477 148.79302,147.26096 151.04746,149.19334 C 153.3019,151.12572 152.17468,149.9985 152.17468,149.9985 M 125.92656,136.1498 C 148.30992,136.95495 152.8188,135.82773 155.3953,141.3028 C 157.97181,146.77787 157.48871,146.29477 157.48871,146.29477 M 41.385071,230.35317 C 56.038928,228.25976 60.064713,228.58182 60.064713,228.58182 M 40.096819,222.94572 C 57.166148,221.97953 59.420588,220.53025 59.420588,220.53025 M 41.546102,213.76693 C 53.94552,212.47868 59.098525,214.08899 59.098525,214.08899 M 39.774756,206.03742 C 55.233771,206.68155 59.098525,205.3933 59.098525,205.3933 M 38.486505,200.88442 C 47.182201,196.6976 52.8183,197.34173 52.8183,197.34173 M 40.901976,189.61222 C 49.919735,189.45119 52.335206,188.16294 52.335206,188.16294 M 40.418882,182.04375 C 48.631484,177.6959 49.436641,178.98415 49.436641,178.98415 M 36.876191,173.50908 C 49.919734,172.54289 49.758703,173.34805 49.758703,173.34805 M 36.393097,164.97442 C 47.02117,163.8472 49.597672,166.10164 49.597672,166.10164 M 37.198254,155.31253 C 48.309421,155.79563 50.885923,155.1515 50.885923,155.1515 M 36.876191,145.97271 C 45.249824,147.58303 46.538075,142.59105 46.538075,142.59105 M 84.219424,218.43684 C 56.19996,220.53025 50.56386,229.38698 67.311126,227.77666 C 84.058392,226.16635 77.617136,229.22595 85.185612,232.92967 C 92.754088,236.63339 91.941445,238.22127 90.66068,228.25976 C 89.211398,216.98756 84.688155,221.79578 117.55293,219.88613 C 125.32282,219.43464 83.736329,218.27581 84.219424,218.43684 z M 57.649242,209.74115 C 58.227443,206.8978 65.885435,208.82065 70.209692,206.84258 C 76.630481,203.90548 109.82342,201.68957 112.07786,202.49473 C 117.09836,204.28777 130.59868,201.98053 130.2744,205.23227 C 130.0604,207.3781 122.11426,206.19973 116.4257,208.13083 C 110.88132,210.01299 113.66477,212.46266 91.304805,213.92796 C 84.40078,214.38368 74.498249,214.60187 68.277315,212.63971 C 62.104301,210.69267 57.649242,209.74115 57.649242,209.74115 z M 55.716865,192.67182 C 56.280475,189.93429 61.739366,196.79427 70.370723,188.16294 C 71.658975,186.87469 109.98445,183.00994 112.72198,185.9085 C 115.48618,188.83529 132.04575,186.06953 132.20678,188.80706 C 132.36781,191.5446 122.21307,189.27909 117.23086,192.51079 C 105.31454,200.24029 78.905388,199.43514 69.726598,196.6976 C 60.547808,193.96007 55.121413,195.56401 55.716865,192.67182 z M 50.080766,140.65868 C 66.022875,139.20939 62.158121,140.01455 66.505969,137.59908 C 70.853817,135.18361 102.09391,135.50567 105.15351,136.95495 C 108.2131,138.40424 125.92656,136.31083 126.57068,138.7263 C 127.21481,141.14177 112.07786,143.39621 108.85723,145.00652 C 105.6366,146.61684 71.17588,146.61684 69.726597,146.13374 C 68.277315,145.65065 50.402829,140.65868 50.080766,140.65868 z M 52.013143,160.14347 C 51.046954,158.6942 60.43631,159.12361 62.641216,157.24491 C 64.75432,155.44443 65.996037,153.08493 66.667001,152.25294 C 67.337965,151.42095 102.93438,148.47321 107.89104,152.73603 C 112.30405,156.5313 132.13618,154.69826 132.52884,157.08388 C 132.94732,159.62641 114.24159,158.83467 112.07786,161.91482 C 109.87394,165.05219 73.437306,163.46831 63.285341,162.88101 C 53.122824,162.2931 52.013143,160.14347 52.013143,160.14347 z M 52.657269,176.56868 C 52.8183,171.73774 59.74265,177.2128 63.446373,173.18702 C 70.181406,165.86634 111.1829,169.03338 111.91682,169.96639 C 114.75032,173.56854 129.95234,169.16123 130.2744,172.0598 C 130.59647,174.95836 114.74484,172.78473 112.23888,176.40765 C 109.05594,181.00931 69.727073,183.10469 63.446373,178.98415 C 61.148629,177.47668 52.490876,181.56048 52.657269,176.56868 z"
       style="fill:none;fill-rule:evenodd;stroke:#000000;stroke-width:1px;stroke-linecap:butt;stroke-linejoin:miter;stroke-opacity:1"
       id="path2451" />
    <path
       id="path2620"
       d="M 151.71802,361.32373 C 145.45285,361.0553 144.35754,360.94347 138.54644,359.97881 C 135.82119,359.52642 133.17059,358.78048 129.36765,357.39571 C 126.42677,356.32486 121.26698,354.50906 117.90143,353.36063 C 110.05906,350.68457 106.05542,348.72734 98.958811,344.10028 C 95.802889,342.04258 92.210336,339.85018 90.975357,339.22826 C 87.747032,337.60251 83.558467,336.27646 79.422488,335.57079 C 77.443483,335.23314 75.782028,334.90727 75.730353,334.84664 C 75.394194,334.45223 73.884199,326.35835 73.566204,323.2463 C 72.832249,316.06354 74.082435,307.68787 77.4708,297.08715 C 78.540918,293.73924 79.559944,290.11604 79.735317,289.03558 C 80.105841,286.75287 80.117219,279.89083 79.755137,277.08717 C 79.617883,276.02436 79.537142,275.11491 79.575722,275.06616 C 79.614305,275.01741 81.659133,275.75863 84.11979,276.71332 C 88.635523,278.46533 95.714454,280.64003 99.865911,281.55063 C 105.78012,282.84788 108.89161,283.1735 115.32493,283.16848 C 121.27184,283.16382 122.01335,283.09759 124.98681,282.3054 C 128.93377,281.25386 133.38933,279.08687 135.84683,277.02359 C 141.11324,272.602 144.64927,265.54811 145.02399,258.71642 C 145.25344,254.53314 144.66056,251.57439 142.31861,245.21528 C 137.35327,231.73288 136.09798,227.51846 136.09798,224.3305 C 136.09798,221.6954 137.0499,219.93538 139.19074,218.61227 C 142.58744,216.51299 148.48194,217.74331 150.10983,220.89133 C 150.85229,222.32705 151.52118,225.94893 152.2206,232.32044 C 153.66953,245.51958 154.19092,248.53527 155.76439,252.81833 C 158.10408,259.1869 162.64581,266.22132 168.29112,272.22007 C 171.28266,275.39894 192.94911,294.56888 201.18375,301.32267 C 209.51007,308.15165 216.72479,312.84846 221.36968,314.46379 C 224.9637,315.71368 229.08295,316.19136 239.31379,316.54467 C 255.16089,317.09192 259.68494,318.064 266.6967,322.42837 C 274.59471,327.34436 275.78734,330.22542 274.957,342.3828 C 274.73609,345.61694 274.47339,348.92799 274.37316,349.7407 L 274.19091,351.21836 L 271.73093,351.60695 C 265.41643,352.60442 261.2625,353.16573 233.52197,356.77005 L 203.8922,360.61985 L 192.1369,360.95825 C 174.83518,361.4563 158.30192,361.6058 151.71802,361.32373 L 151.71802,361.32373 z"
       style="fill:#803300" />
    <path
       id="path2622"
       d="M 62.345594,334.34794 C 55.37963,333.57949 42.452135,330.00532 32.478575,326.09037 L 29.038239,324.73992 L 27.996053,320.68199 C 25.340484,310.34196 25.535026,307.2409 30.468284,281.27398 C 32.233353,271.98333 32.715146,267.79268 32.715545,261.72768 C 32.715697,259.47967 32.824512,257.57407 32.957363,257.49302 C 33.090214,257.41197 34.575728,258.35739 36.258507,259.59394 C 46.822225,267.35647 58.157737,271.96902 68.309505,272.63587 L 71.338212,272.83482 L 71.59232,274.31686 C 72.000837,276.69934 71.86998,285.57173 71.394712,287.71524 C 71.159068,288.77805 70.246423,292.25633 69.366627,295.44475 C 65.848987,308.19286 64.839284,315.90085 65.515948,324.84082 C 65.863041,329.42643 66.357649,332.46618 67.008216,334.01177 C 67.219786,334.5144 67.041347,334.5698 65.359132,334.52384 C 64.321655,334.49549 62.965565,334.41634 62.345594,334.34794 z"
       style="fill:#803300" />
    <path
       id="path2624"
       d="M 112.1043,274.4779 C 104.28407,273.3246 98.459382,272.1056 90.940681,270.04877 C 84.596997,268.31337 82.302705,267.85497 74.58398,266.78073 C 62.001244,265.02953 56.930456,263.67783 49.252346,260.02815 C 44.599698,257.81658 39.832911,254.7 37.090649,252.07667 L 34.955257,250.03389 L 37.725854,246.65223 C 39.249671,244.79232 41.513097,241.85752 42.755683,240.13046 C 45.329206,236.55353 44.852656,236.72968 49.946176,237.47266 C 59.834728,238.91508 67.231509,238.27282 74.58398,235.33337 C 80.582004,232.93541 84.112856,233.52658 90.997989,238.08157 C 96.035254,241.41407 97.331267,242.19495 103.73066,245.7533 C 117.46918,253.39256 127.08618,257.63197 131.7931,258.12394 C 136.12087,258.57629 136.30045,256.42762 132.24841,252.67614 C 129.14826,249.80597 126.03923,248.28169 115.00286,244.22116 C 104.38453,240.31444 100.66997,238.21728 96.110578,233.55496 C 93.170705,230.54871 91.975372,228.84039 91.975372,227.64502 C 91.975372,225.42251 94.234253,224.96445 109.37254,224.11715 C 115.86918,223.75353 118.91518,223.27824 122.46391,222.07441 C 126.73481,220.6256 130.04414,217.6108 128.15806,216.88704 C 127.86519,216.77466 125.61571,216.4706 123.1592,216.21136 C 116.79187,215.5394 113.87564,214.72415 113.87564,213.61609 C 113.87564,212.90366 115.41612,212.36807 120.271,211.39259 C 122.63707,210.91717 125.10085,210.34224 125.74607,210.11496 C 126.39128,209.88769 127.37929,209.76953 127.94163,209.85239 C 128.88622,209.99159 144.18011,209.20153 148.41688,208.79467 L 150.26874,208.61684 L 150.26884,211.12882 L 150.26893,213.6408 L 144.06913,213.6408 C 138.906,213.6408 137.57313,213.73987 136.09798,214.23329 C 132.7066,215.36768 131.31878,217.0497 130.62713,220.86395 C 129.82456,225.2898 131.4929,232.67739 136.59633,247.29636 C 138.14091,251.72084 138.47616,253.07069 138.59909,255.36011 C 138.89085,260.7939 137.41052,264.04086 132.55869,268.60908 C 129.07735,271.88694 126.83845,273.14763 123.21546,273.87017 C 120.75963,274.35995 113.86246,274.73718 112.1043,274.47789 L 112.1043,274.4779 z"
       style="fill:#803300" />
    <path
       id="path2634"
       d="M 156.309,141.96896 C 154.55227,138.31495 153.61729,137.54474 149.88858,136.67999 C 147.01172,136.0128 131.57058,135.48421 122.41031,135.73934 C 115.62697,135.92826 115.14941,135.90086 111.20769,135.0966 C 102.40121,133.29973 92.742181,132.53232 78.609766,132.50674 C 67.171718,132.48603 63.299318,132.77337 60.059019,133.88325 C 58.831112,134.30384 56.844452,134.54575 53.301326,134.70612 L 48.282847,134.93328 L 47.888446,127.74896 C 47.154854,114.38579 46.912834,111.23289 46.385185,108.16523 C 45.708393,104.23047 43.730647,96.449365 42.230031,91.817483 C 41.583876,89.823038 41.138135,88.057052 41.239482,87.893064 C 41.538259,87.409651 44.597521,86.376445 47.369673,85.822719 C 49.793421,85.338588 61.145572,83.731948 67.155193,83.022528 C 70.188,82.664513 76.122088,82.959407 87.466493,84.031895 C 105.08088,85.69714 111.66484,87.153817 127.64249,92.92068 C 141.01562,97.747503 142.62905,98.191222 150.88723,99.31354 C 157.38501,100.19662 164.75184,101.6037 165.2083,102.04893 C 165.69117,102.51987 164.48173,115.34651 162.97975,125.6839 C 161.6162,135.06851 159.74331,142.71609 158.38379,144.45046 C 157.84578,145.13681 157.81329,145.09794 156.309,141.96896 z"
       style="fill:#803300" />
    <path
       id="path2636"
       d="M 63.309717,361.63968 C 88.360324,352.98583 88.567272,352.89806 88.567272,352.89806"
       style="fill:#000000;fill-rule:evenodd;stroke:#000000;stroke-width:1px;stroke-linecap:butt;stroke-linejoin:miter;stroke-opacity:1" />
    <path
       id="path2638"
       d="M 142.43206,370.50423 C 137.64943,370.24985 132.14216,369.71448 130.19368,369.31453 C 121.39009,367.50753 110.88311,363.03689 90.257888,352.32217 C 66.66356,340.06499 65.96127,339.79505 62.895026,341.80413 C 61.293421,342.85358 61.272235,342.98085 61.272235,351.56055 C 61.272235,360.23916 61.269813,360.25314 59.822953,359.93999 C 59.025847,359.76746 55.492007,359.02418 51.969979,358.28822 C 43.420294,356.50171 32.855507,353.52834 29.879048,352.07093 C 26.089766,350.21553 25.796663,349.07352 25.993411,336.93154 C 26.089083,331.02612 26.326643,326.03593 26.521292,325.84221 C 26.715933,325.64852 29.614505,326.52635 32.962548,327.79298 C 47.337525,333.23135 56.718699,335.41211 68.67968,336.09589 C 82.713187,336.89815 88.010173,338.60286 99.057114,345.87216 C 105.85302,350.34411 110.76949,352.50076 126.00686,357.69383 C 140.96397,362.7914 144.4076,363.11992 177.53021,362.60941 L 203.30193,362.21222 L 235.18615,358.02308 C 252.72247,355.71908 269.53415,353.39416 272.54544,352.8566 C 275.55672,352.31906 278.2379,351.87388 278.5036,351.86736 C 278.7693,351.86083 278.98669,353.27844 278.98669,355.0176 L 278.98669,358.17971 L 270.77409,360.1315 C 246.87091,365.81224 231.15489,367.81824 191.70767,370.22351 C 175.69252,371.20001 157.46473,371.30388 142.43206,370.50425 L 142.43206,370.50423 z"
       style="fill:#000000" />
    <path
       id="path2640"
       d="M 63.204612,351.83021 L 63.204612,342.83773 L 65.78143,342.83773 C 67.721189,342.83773 70.587451,343.99176 77.375672,347.5059 C 82.335259,350.07339 86.392097,352.31979 86.390828,352.49788 C 86.389566,352.67596 81.172135,354.6219 74.796567,356.82217 L 63.204612,360.82269 L 63.204612,351.83021 z"
       style="fill:#000000" />
    <path
       id="path2642"
       d="M 68.469386,333.33688 C 67.318643,331.09147 67.016825,328.40919 67.013559,320.39871 C 67.010093,311.8513 67.98738,305.76031 71.216189,294.20625 C 73.281925,286.81409 73.783184,282.29517 73.212688,276.2071 L 72.756576,271.33979 L 69.751937,271.33527 C 61.704212,271.32319 47.930159,265.97684 38.244745,259.10587 C 33.574126,255.79246 32.72674,254.35123 34.139185,252.12304 C 34.589564,251.41255 34.743014,251.41817 35.025978,252.15556 C 35.620487,253.7048 44.618316,259.46062 50.644163,262.14636 C 57.648707,265.26831 62.021927,266.39446 73.832685,268.11762 C 78.792452,268.84123 86.038865,270.27915 89.935825,271.31298 C 107.34969,275.93272 117.55368,276.93166 125.25542,274.77068 C 128.31251,273.91291 129.92495,272.91851 133.14854,269.90299 C 141.27772,262.29849 141.73055,258.11677 136.23119,241.43318 C 133.33411,232.64404 132.54422,229.33923 132.29462,224.96274 C 132.01591,220.07424 132.12953,219.30251 133.35543,217.75931 C 135.24072,215.38604 140.49254,214.31756 146.59234,215.06624 C 150.98554,215.60545 151.16434,215.69784 152.29504,218.01122 C 153.08088,219.61923 153.54613,222.35499 153.71882,226.38485 C 153.95103,231.80407 153.91882,232.01879 153.3784,228.65495 C 152.34612,222.22959 151.49678,219.96376 149.48633,218.27208 C 145.82544,215.19165 139.83701,215.43512 136.68279,218.79261 C 133.43086,222.25413 134.11608,227.20693 140.03173,242.99826 C 142.96643,250.83233 143.29468,252.23646 143.34376,257.16902 C 143.3922,262.03303 143.17268,263.12024 141.37686,266.91038 C 137.82444,274.408 133.15749,278.27931 124.74379,280.70792 C 119.66808,282.173 105.7613,281.68794 98.631521,279.79714 C 93.000916,278.30391 84.715458,275.54404 80.714227,273.82891 C 79.173388,273.16841 77.831372,272.62804 77.73197,272.62804 C 77.632581,272.62804 77.830715,274.14979 78.172294,276.0097 C 79.20238,281.61843 78.438911,289.61663 76.220201,296.46069 C 75.129149,299.82624 73.7833,304.81405 73.229423,307.5447 C 72.014827,313.5328 71.959168,324.16397 73.111283,330.11625 L 73.952827,334.4641 L 71.499971,334.4641 C 69.81336,334.4641 68.866599,334.11195 68.469386,333.33688 z"
       style="fill:#000000" />
    <path
       id="path2644"
       d="M 87.03726,233.03618 C 85.443049,232.19549 83.051063,230.46984 81.721729,229.20139 L 79.304764,226.89512 L 69.360327,226.89512 C 63.890883,226.89512 59.252045,226.63002 59.051799,226.30601 C 58.000129,224.60438 68.4623,221.14983 78.663627,219.83027 C 84.450786,219.0817 95.846779,219.04186 92.022122,219.78357 C 90.689703,220.04197 89.410927,220.44199 89.180401,220.67252 C 88.796328,221.0566 89.938421,230.86273 90.674083,233.49741 C 91.081351,234.95596 90.550134,234.88858 87.03726,233.03616 L 87.03726,233.03618 z"
       style="fill:#000000" />
    <path
       id="path2650"
       d="M 76.457497,213.44675 C 72.669993,213.16162 71.139257,212.84144 64.621455,210.97111 C 62.362864,210.32299 60.052881,209.70181 59.488164,209.59071 C 58.483825,209.39311 58.47058,209.38389 58.881613,209.16853 C 59.543826,208.82157 60.623507,208.66945 63.819873,208.47277 C 67.376334,208.25393 68.464487,208.06137 70.99397,207.20322 C 73.384203,206.39231 76.675974,205.7261 81.368954,205.10344 C 93.791307,203.45525 110.00797,202.48428 112.60905,203.23294 C 113.7234,203.55369 116.6753,203.76066 122.83454,203.94991 C 127.82225,204.10316 129.03623,204.26959 129.53308,204.86826 C 129.71715,205.09005 129.69704,205.16939 129.39462,205.41426 C 128.94032,205.78214 127.72927,205.9825 124.04228,206.29977 C 117.91207,206.82729 116.761,207.15828 111.48183,209.91147 C 109.30156,211.04852 106.75204,211.69884 101.98097,212.33491 C 94.042195,213.39329 82.45309,213.89813 76.457497,213.44676 L 76.457497,213.44675 z"
       style="fill:#000000" />
    <path
       id="path2652"
       d="M 79.919672,197.75733 C 76.014332,197.42128 73.141163,196.94952 69.613662,196.06514 C 65.74138,195.09432 64.586745,194.87071 61.320545,194.45908 C 58.137128,194.05789 57.076356,193.8551 56.610376,193.55864 C 56.237922,193.32168 56.123844,192.7872 56.408211,192.61145 C 56.496294,192.55701 57.275285,192.66854 58.139299,192.85928 C 60.012915,193.27292 62.31968,193.306 63.736016,192.93953 C 64.267419,192.80203 65.354381,192.36783 66.151487,191.97465 C 67.389936,191.36377 68.166064,190.81192 70.650849,188.77546 C 71.085739,188.41903 71.685288,188.27954 74.913236,187.78373 C 79.533303,187.07409 87.811219,186.24952 95.459202,185.73713 C 97.14198,185.62439 101.01881,185.53422 104.07438,185.53675 C 110.15219,185.54179 111.49394,185.69167 112.52909,186.48123 C 113.98545,187.59204 115.75592,187.84079 123.52466,188.02606 C 129.43234,188.16695 130.92065,188.29337 131.40512,188.69544 C 131.70312,188.94277 131.39624,189.26436 130.6674,189.46852 C 130.34485,189.55886 128.59544,189.74474 126.77981,189.88158 C 120.34944,190.36622 119.48799,190.59082 115.43392,192.83972 C 111.20666,195.18469 105.25593,196.74067 97.150032,197.62053 C 93.831696,197.98073 83.47168,198.06298 79.919672,197.75733 z"
       style="fill:#000000" />
    <path
       id="path2654"
       d="M 74.117931,180.45317 C 69.487718,180.16162 65.700878,179.47445 64.01408,178.61968 C 62.875891,178.04292 61.835067,177.96464 59.275095,178.26327 C 55.146986,178.74483 53.877904,178.57076 53.41351,177.45931 C 53.109558,176.73186 53.240437,175.77074 53.700099,175.35463 C 54.07328,175.01682 54.448634,175.00434 58.019401,175.21113 C 61.219438,175.39644 62.086628,175.1522 63.894603,173.55639 C 65.041198,172.54436 66.073767,171.99387 68.003348,171.36591 C 70.895172,170.42479 75.284225,169.72502 80.88586,169.31196 C 86.750888,168.87949 100.5314,169.15207 107.13398,169.83116 C 110.74322,170.20238 111.2545,170.31022 112.15465,170.89019 C 113.21206,171.57147 113.70942,171.71581 115.74916,171.93333 C 116.95306,172.06173 118.27389,172.05103 120.98268,171.89095 C 126.19079,171.58316 129.10906,171.60149 129.45137,171.94414 C 129.70011,172.19313 129.68532,172.22858 129.23552,172.46117 C 128.53863,172.82155 127.05374,173.02456 122.59448,173.36912 C 117.08741,173.79465 114.59453,174.20713 113.20625,174.92253 C 112.95902,175.04993 112.35433,175.51859 111.8625,175.96399 C 110.87826,176.85533 110.28258,177.15255 108.25347,177.76474 C 104.71526,178.83224 99.285142,179.63429 91.594449,180.22534 C 87.942997,180.50597 77.183937,180.64622 74.117928,180.45317 L 74.117931,180.45317 z"
       style="fill:#000000" />
    <path
       id="path2656"
       d="M 81.207923,163.05604 C 75.580615,162.89316 66.134397,162.4786 62.850343,162.2504 C 58.5901,161.95436 55.496744,161.38511 53.714552,160.5692 C 52.349091,159.94407 52.38722,159.92895 56.79396,159.34843 C 59.470647,158.99582 61.442826,158.54387 62.34444,158.07647 C 63.144952,157.66149 64.675782,156.04842 66.039388,154.18303 L 67.173679,152.63135 L 68.514444,152.45127 C 74.714559,151.61856 82.955526,151.14438 91.272386,151.14179 C 100.92159,151.13879 105.20936,151.69517 107.63901,153.26552 C 108.18392,153.61772 108.99703,154.05065 109.44594,154.22759 C 111.63299,155.08965 115.69428,155.65477 122.59299,156.057 C 128.14434,156.38067 130.00709,156.56246 131.12766,156.88994 L 132.01333,157.14877 L 131.36921,157.43299 C 130.49379,157.81926 128.45877,158.14374 123.31805,158.71673 C 115.88802,159.54489 113.15734,160.15166 111.94948,161.2429 C 110.95165,162.14438 109.22275,162.55072 104.87954,162.90457 C 102.03278,163.1365 87.254622,163.23106 81.207923,163.05604 z"
       style="fill:#000000" />
    <path
       id="path2658"
       d="M 71.546039,145.67999 C 69.871667,145.56973 69.153995,145.40301 64.058079,143.94048 C 60.958224,143.05083 57.407482,142.05188 56.16754,141.72061 C 54.927598,141.38933 53.860524,141.07178 53.796262,141.01494 C 53.732008,140.9581 55.579838,140.7486 57.902563,140.54938 C 60.225295,140.35017 62.536923,140.09106 63.039524,139.97359 C 63.542129,139.85612 64.665322,139.35589 65.535511,138.86196 C 66.405704,138.36805 67.516228,137.85047 68.003348,137.71181 C 70.791927,136.918 77.71948,136.47375 87.246601,136.47779 C 96.844164,136.48185 102.53349,136.80427 104.77627,137.47119 C 106.42407,137.96119 108.79468,138.09613 115.82967,138.10038 C 119.32808,138.10249 122.79956,138.17425 123.54409,138.25985 C 125.00977,138.42835 125.97465,138.6875 125.97465,138.91263 C 125.97465,139.1758 124.59023,139.86812 122.90225,140.44907 C 121.97934,140.76671 118.83291,141.63806 115.91019,142.3854 C 112.98747,143.13273 110.12514,143.91969 109.54945,144.13418 C 108.97376,144.34867 108.20865,144.59992 107.84922,144.69253 C 106.9749,144.91777 102.51745,145.30344 98.357767,145.51374 C 94.211494,145.72336 74.098441,145.84808 71.546039,145.67999 L 71.546039,145.67999 z"
       style="fill:#000000" />
    <path
       id="path2662"
       d="M 56.915956,227.79176 C 55.814087,227.6315 54.755378,227.22697 54.394676,226.8284 C 54.147449,226.55522 54.138415,226.45287 54.322368,226.00877 C 54.622854,225.28333 55.847041,224.11664 57.658382,222.82944 C 59.485814,221.5308 60.104175,221.20635 62.930859,220.06306 C 67.346915,218.27692 69.130568,217.14562 69.130568,216.13082 C 69.130568,214.96489 68.065392,214.56923 63.45813,214.02378 C 57.27804,213.29213 54.648574,212.53037 53.479716,211.13304 C 53.32992,210.95397 53.123124,210.46201 53.02016,210.03981 C 52.860683,209.38588 52.872076,209.21246 53.097029,208.86914 C 53.787106,207.81595 55.600572,206.98454 59.388168,205.98489 C 66.020792,204.23435 67.409988,203.71596 67.991931,202.77436 C 68.43782,202.0529 68.43655,201.01516 67.989234,200.56785 C 67.284956,199.86357 66.362469,199.65341 62.045186,199.21367 C 57.925926,198.7941 56.475189,198.46072 54.154647,197.40042 C 51.574366,196.22144 49.640736,194.00263 49.647341,192.22834 C 49.650547,191.36687 50.374899,190.18277 51.348685,189.44716 L 52.276672,188.74615 L 56.154477,188.64635 C 62.93934,188.47174 66.053612,187.78705 66.852486,186.29434 C 67.604386,184.88939 66.041203,183.4177 62.835816,182.51277 C 61.797568,182.21966 61.140698,182.17121 57.777854,182.13973 C 54.200849,182.10624 53.841163,182.07634 52.946912,181.73807 C 52.415508,181.53706 51.679901,181.15854 51.312227,180.89693 C 50.527062,180.33824 49.645768,179.17411 49.645768,178.69562 C 49.645768,178.51083 49.578441,178.35963 49.496154,178.35963 C 49.413862,178.35963 49.264575,177.96481 49.164395,177.48225 C 48.962378,176.50913 49.129107,175.17726 49.556381,174.351 C 50.108334,173.28364 52.471112,172.61907 57.619547,172.0831 C 61.418647,171.6876 61.619268,171.6471 62.049893,171.18872 L 62.399222,170.81688 L 61.779362,170.41442 C 61.427576,170.186 60.184558,169.75706 58.905074,169.42254 C 53.626843,168.04259 50.547773,166.55726 48.502878,164.40459 C 47.542112,163.39318 47.137931,162.69686 46.833749,161.52902 C 46.369306,159.74592 46.616777,158.22765 47.527452,157.27297 C 48.218767,156.54825 48.801218,156.35706 51.014535,156.12833 C 55.658235,155.64843 55.950547,155.57904 59.227137,154.17881 C 62.897511,152.6103 63.922563,152.10756 65.155289,151.27135 C 67.199569,149.88464 67.264971,148.30046 65.318921,147.30766 C 64.327199,146.80172 63.711043,146.74706 58.824558,146.73154 C 54.451998,146.71765 54.18571,146.69931 53.188459,146.34336 C 50.880053,145.51942 46.098259,141.82456 45.408554,140.33188 C 44.806552,139.029 45.3177,137.55268 46.653948,136.73488 L 47.446369,136.24992 L 58.409242,136.22447 C 67.426009,136.20353 69.214892,136.23426 68.486442,136.39756 C 67.028532,136.72439 66.42121,136.9724 65.002521,137.82028 C 64.252086,138.26877 63.239604,138.72413 62.727066,138.84365 C 62.219182,138.96209 59.158698,139.28826 55.925993,139.56848 C 52.693287,139.8487 50.037148,140.08623 50.023461,140.09632 C 50.009773,140.10641 49.973541,140.36027 49.942945,140.66046 L 49.887315,141.20624 L 53.671553,142.23332 C 55.752884,142.79821 60.318124,144.07436 63.816532,145.06919 L 70.177272,146.87799 L 82.415659,146.86746 C 93.92871,146.85755 98.917492,146.72896 104.07438,146.30919 C 106.99644,146.07133 107.96319,145.89069 110.03254,145.19586 C 111.05107,144.85387 113.94963,144.05406 116.4738,143.4185 C 125.05624,141.25753 127.10187,140.37174 127.10187,138.81639 C 127.10187,137.92618 126.14881,137.40523 124.04228,137.14399 L 123.1566,137.03415 L 124.21933,136.90768 C 125.38988,136.76836 127.3417,137.00152 128.04365,137.36451 C 128.27892,137.48617 128.60488,137.73319 128.768,137.91344 C 129.8128,139.06794 127.15946,141.27967 123.23712,142.52377 C 122.4843,142.76255 119.91182,143.34743 117.5205,143.8235 C 111.34972,145.052 109.97022,145.52229 109.47476,146.56638 C 109.12496,147.30351 109.14934,147.43845 109.88568,148.84297 C 110.62355,150.25039 111.01843,150.73711 111.72337,151.10809 C 112.87666,151.71501 113.8688,151.81015 120.49959,151.94977 C 127.31701,152.09331 128.85703,152.23698 130.96663,152.92621 C 133.37975,153.71461 135.49787,155.31495 135.72407,156.52065 C 135.9485,157.71697 134.99471,158.84477 132.96577,159.78221 C 130.78427,160.79012 127.97896,161.27108 121.78784,161.6986 C 119.79507,161.83622 117.68353,162.04869 117.09554,162.17077 C 114.87518,162.63177 113.97781,163.45292 113.97781,165.02371 C 113.97781,165.81197 114.04194,166.00598 114.43959,166.42104 C 115.45901,167.4851 116.88757,167.8426 122.91506,168.54204 C 125.26209,168.81439 127.72587,169.14746 128.39012,169.2822 C 129.83388,169.57505 131.37895,170.2331 131.70041,170.69205 C 132.34831,171.61705 131.57829,173.15879 130.06754,173.96134 C 128.65214,174.71326 127.41783,175.0574 123.23712,175.86579 C 116.94879,177.08171 115.06866,177.90146 114.00875,179.88943 C 113.50512,180.834 113.52029,182.54902 114.04031,183.45807 C 115.08809,185.28975 117.08527,185.76345 123.76988,185.76575 C 128.93061,185.76753 130.65139,186.06935 131.81204,187.17632 C 132.2722,187.61519 132.43927,188.05296 132.01095,187.69747 C 131.39466,187.186 129.90119,187.03816 123.88124,186.89268 C 115.96298,186.70133 114.58886,186.51683 113.04349,185.4375 C 111.7587,184.54018 110.52522,184.39857 103.99387,184.39856 C 98.234588,184.39856 95.547323,184.5241 88.293305,185.13204 C 81.290052,185.71897 73.512065,186.70349 71.171097,187.29933 C 70.418922,187.49078 69.99872,187.74215 69.055075,188.56515 C 65.328861,191.81496 62.703362,192.57581 58.241442,191.69888 C 56.236465,191.30482 55.645128,191.39485 55.302756,192.14627 C 54.952516,192.91497 55.07595,193.64493 55.653914,194.2229 C 56.318653,194.88764 56.727134,194.99518 60.515388,195.50283 C 64.567727,196.04586 65.797944,196.2785 69.050052,197.1168 C 72.159143,197.91823 74.562949,198.34804 78.248182,198.76147 C 81.501683,199.12647 93.076585,199.17543 96.505906,198.8387 C 105.55616,197.95005 111.84278,196.24808 117.11793,193.25841 C 119.66261,191.81621 121.31508,191.42442 126.29672,191.08217 C 129.57313,190.85706 131.07349,190.6322 131.81164,190.25562 C 132.31515,189.99874 132.41591,189.98723 132.41591,190.18656 C 132.41591,190.55057 131.52054,191.49209 130.73859,191.95035 C 129.49093,192.68152 127.74305,193.04357 122.1099,193.73765 C 117.18662,194.34426 115.28608,195.10905 114.52205,196.79106 C 113.67817,198.64881 114.72935,200.56105 117.07052,201.42724 C 118.37518,201.90994 119.38886,202.12995 121.63795,202.41858 L 123.31763,202.63413 L 120.17752,202.6506 C 116.63143,202.66919 114.36144,202.49173 112.88924,202.08083 C 109.63085,201.17139 87.633131,202.74734 76.389437,204.69572 C 73.55058,205.18766 72.074203,205.55787 70.089547,206.27548 C 68.231674,206.94725 67.148471,207.12129 63.413953,207.34811 C 58.912254,207.62152 57.804849,207.98551 57.18049,209.39698 C 57.007116,209.78891 56.889442,210.1245 56.918983,210.14273 C 56.948526,210.16097 58.38086,210.52491 60.101949,210.9515 C 61.823037,211.37809 64.178121,212.01335 65.33547,212.36318 C 72.266688,214.45829 75.583885,214.86006 84.670098,214.70491 C 90.524904,214.60495 96.136291,214.21532 101.57562,213.53107 C 107.10796,212.83513 109.78992,212.14193 112.47024,210.71516 C 117.05611,208.27405 118.16461,207.96728 124.36434,207.42352 C 127.05424,207.1876 128.86446,206.91869 129.75889,206.62215 C 130.34084,206.42921 129.00214,207.50664 128.06806,207.983 C 126.68512,208.68825 124.8407,209.20729 120.86833,210.00908 C 114.49861,211.29475 113.17266,211.7251 112.68691,212.66447 C 112.06157,213.87372 112.75863,214.97529 114.70574,215.85487 C 116.3824,216.61228 118.4559,216.99431 123.60702,217.49491 C 125.37922,217.66713 126.87245,217.85247 126.92529,217.90675 C 127.08155,218.06731 125.66761,219.23744 124.58734,219.84157 C 121.03456,221.82838 116.08631,222.7059 106.08727,223.12231 C 98.370051,223.44369 95.482848,223.74164 93.51073,224.42015 C 92.392087,224.80502 91.411771,225.4491 91.132032,225.983 C 90.950645,226.32919 90.896656,226.17857 90.578365,224.43837 C 90.121087,221.93826 90.126201,221.74976 90.660911,221.39898 C 91.040877,221.14972 91.567389,221.10853 94.807469,221.07459 C 101.34904,221.00606 112.92407,220.71485 115.79974,220.54647 C 118.25851,220.4025 118.6437,220.34192 119.06062,220.03367 C 119.66109,219.58973 119.65411,219.48593 119.01004,219.28148 C 117.90534,218.93081 108.59969,218.47133 95.861781,218.13851 C 92.451941,218.04941 88.483568,217.94216 87.043176,217.90017 C 82.490931,217.76746 74.523168,218.73803 68.557343,220.15196 C 62.763866,221.52504 58.505895,223.50049 57.611423,225.23021 C 57.124521,226.17177 57.409113,227.0439 58.400516,227.64843 L 58.905074,227.95609 L 58.341464,227.93661 C 58.031478,227.92589 57.389999,227.86071 56.915953,227.79176 L 56.915956,227.79176 z M 87.987891,181.57815 C 98.338917,181.06403 107.09722,179.73412 110.76569,178.11945 C 111.21318,177.92247 112.03843,177.35167 112.59955,176.851 C 113.45324,176.08927 113.833,175.87607 114.92601,175.54491 C 116.25467,175.14235 119.02555,174.75177 121.78784,174.57768 C 125.89562,174.31879 128.508,174.00459 129.43683,173.65773 C 130.75225,173.1665 131.22252,171.96733 130.39906,171.20416 C 129.52986,170.3986 128.04515,170.31517 121.64996,170.71249 C 116.21124,171.05038 114.0805,170.84115 112.67397,169.83106 C 112.30779,169.56809 111.68049,169.27949 111.27996,169.18973 C 110.26552,168.96239 104.653,168.4352 100.61221,168.1877 C 96.212819,167.91823 83.869727,167.91726 80.483282,168.18611 C 71.086161,168.93216 65.784322,170.27696 63.304368,172.5435 C 61.565465,174.13276 60.678194,174.33781 56.918548,174.01931 C 54.226229,173.79122 53.513572,173.89471 52.829493,174.61308 C 51.883977,175.606 51.885462,177.82253 52.832256,178.7294 C 53.860512,179.71429 55.219295,179.85126 59.468684,179.3984 C 62.028885,179.12556 62.547197,179.16678 63.662437,179.73191 C 65.476876,180.65136 69.397121,181.30938 75.008214,181.63632 C 77.120136,181.75938 85.055153,181.72382 87.987891,181.57815 L 87.987891,181.57815 z M 105.84573,163.97157 C 109.74977,163.59304 111.60196,163.13706 112.44802,162.34618 C 113.7225,161.15483 115.5164,160.75468 123.7139,159.83319 C 131.65884,158.9401 133.20522,158.47139 133.03148,157.00904 C 132.88322,155.76134 131.14726,155.40419 122.91506,154.92776 C 115.86816,154.51994 111.68888,153.94509 109.791,153.1226 C 109.43673,152.96907 108.71732,152.569 108.19229,152.23356 C 106.72998,151.29926 104.65216,150.73981 101.17582,150.34439 C 94.570575,149.59307 77.394451,150.06611 68.969536,151.23137 C 66.29795,151.60088 66.536766,151.46901 65.24094,153.29021 C 63.852081,155.24216 62.498649,156.70815 61.723123,157.10058 C 60.936659,157.49855 59.388476,157.82014 55.925993,158.30476 C 51.981068,158.8569 51.417114,159.06881 51.417114,159.99894 C 51.417114,161.15522 54.165169,162.31646 58.42198,162.95896 C 61.200626,163.37835 69.590923,163.84409 80.483282,164.18356 C 87.217018,164.39342 102.84181,164.26282 105.84573,163.97157 z"
       style="fill:#803300" />
    <path
       id="path2664"
       d="M 131.15131,256.85636 C 128.21027,256.21811 124.21988,254.82869 120.90216,253.2877 C 118.40584,252.12823 110.12259,247.87021 106.0274,245.64131 C 100.50507,242.63566 95.299949,239.54304 92.40552,237.54787 C 91.023339,236.59511 90.729521,236.33093 91.052053,236.33093 C 92.033443,236.33093 92.23426,235.08966 91.75548,231.98309 C 91.625806,231.1417 91.518409,230.39266 91.516822,230.31857 C 91.515232,230.24448 91.937563,230.75172 92.455334,231.44579 C 92.973104,232.13986 94.259343,233.55204 95.313641,234.58399 C 100.81554,239.96922 103.06516,241.18761 116.79586,246.21865 C 122.05407,248.1453 123.9062,248.89993 126.1972,250.04913 C 129.37016,251.64075 131.74033,253.45684 133.16834,255.39061 C 133.90427,256.38719 134.02967,256.84538 133.61047,257.00624 C 133.21625,257.15752 132.27456,257.10013 131.1513,256.85636 L 131.15131,256.85636 z"
       style="fill:#803300" />
    <path
       id="path2666"
       d="M 82.335143,232.8405 C 81.042162,232.6267 78.8681,232.65234 77.651095,232.89574 C 77.217241,232.98251 77.182138,232.95367 77.182138,232.51047 C 77.182138,230.81958 74.114111,229.23708 69.494212,228.545 L 68.083864,228.33373 L 69.372115,228.18723 C 70.080653,228.10665 72.218345,228.0407 74.122541,228.04067 C 78.577206,228.0406 78.77671,228.10665 80.718516,230.22409 C 81.454755,231.02693 82.535583,232.00476 83.120351,232.39705 C 83.705122,232.78934 84.075643,233.10052 83.943737,233.08857 C 83.811833,233.07662 83.087965,232.96498 82.335143,232.8405 z"
       style="fill:#502d16" />
    <path
       id="path2668"
       d="M 129.91992,256.46775 C 126.12887,255.48207 122.79148,254.14541 117.45542,251.4756 C 107.46925,246.4792 98.776095,241.64577 93.491216,238.15145 C 91.169738,236.6165 90.818763,236.33093 91.253751,236.33093 C 91.973806,236.33093 92.192234,234.69812 91.825195,232.05921 C 91.730689,231.37973 91.678615,230.79854 91.709476,230.76768 C 91.740345,230.73682 92.116662,231.14527 92.54575,231.67536 C 93.61674,232.99843 96.130549,235.53088 97.874673,237.04379 C 101.66521,240.33183 104.58208,241.73602 118.32566,246.88893 C 125.93947,249.74359 129.18493,251.46299 131.75835,254.00539 C 133.05842,255.28977 133.7025,256.16913 133.70356,256.66115 C 133.7045,257.10155 132.028,257.01585 129.91992,256.46775 z"
       style="fill:#502d16" />
    <path
       id="path2670"
       d="M 56.650634,227.68675 C 54.960875,227.30817 54.208474,226.79605 54.373863,226.13708 C 54.573928,225.33995 57.201571,223.06928 59.42007,221.77641 C 59.933926,221.47695 61.586247,220.70789 63.09189,220.06739 C 67.683052,218.1143 69.130568,217.1606 69.130568,216.08881 C 69.130568,214.92544 68.399535,214.66464 62.930859,213.87701 C 57.34433,213.0724 55.624792,212.62604 54.126457,211.59155 C 53.520643,211.17328 53.027428,210.24735 53.027428,209.5283 C 53.027428,209.31547 53.218259,208.91454 53.451501,208.63735 C 54.236733,207.70416 56.248118,206.90453 61.159513,205.57303 C 67.279697,203.91383 68.323296,203.33117 68.324809,201.5725 C 68.325295,201.00314 68.235968,200.78866 67.847019,200.42532 C 67.270161,199.88645 66.595339,199.70439 63.970115,199.37937 C 57.232548,198.54521 56.449504,198.37376 54.074132,197.21263 C 52.879261,196.62855 52.221639,196.18268 51.525103,195.48438 C 49.224389,193.17783 49.216526,191.2096 51.500924,189.42984 L 52.225111,188.86563 L 54.920972,188.75819 C 61.013532,188.51536 62.958068,188.30405 64.915126,187.67212 C 67.757266,186.7544 67.748865,184.6215 64.897622,183.23129 C 63.082898,182.34647 62.180026,182.19852 57.777854,182.06464 C 53.427763,181.93235 53.006349,181.85564 51.585019,180.93733 C 50.648527,180.33227 50.10006,179.63027 49.558449,178.34346 C 49.190742,177.46983 49.136741,177.15106 49.201985,176.2392 C 49.394983,173.54176 50.403649,173.05722 57.697338,172.1582 C 61.189956,171.7277 62.239644,171.44925 62.335748,170.92776 C 62.407,170.54115 61.163898,170.01366 57.85837,169.02788 C 53.103116,167.60976 50.939209,166.55529 48.963889,164.69357 C 48.20992,163.98296 47.715407,163.34177 47.351982,162.60355 C 46.870745,161.62602 46.827719,161.41182 46.827719,159.99367 C 46.827719,158.57771 46.864703,158.39284 47.270735,157.77929 C 47.949861,156.75306 48.61465,156.50269 51.613857,156.14361 C 55.966666,155.62247 56.358626,155.51189 60.825537,153.54491 C 63.930635,152.1776 65.632251,151.16846 66.283041,150.30836 C 66.9656,149.40627 66.91814,148.55679 66.144406,147.82707 C 65.1531,146.89215 64.473095,146.7815 58.905074,146.6491 C 54.323651,146.54015 53.839316,146.50158 53.015936,146.18003 C 52.069887,145.81058 50.614005,144.89407 48.788678,143.51888 L 47.690038,142.69117 L 51.22866,142.64788 L 54.767282,142.60458 L 61.10351,144.3868 C 64.588436,145.36702 68.052551,146.34665 68.801544,146.56376 L 70.163344,146.9585 L 79.912714,146.9557 C 93.932174,146.95168 103.02688,146.65157 106.7314,146.07074 C 107.52851,145.94576 109.04014,145.58292 110.09056,145.26443 C 111.14099,144.94594 113.74971,144.21865 115.88769,143.64823 C 119.11269,142.78778 119.99213,142.61106 121.04978,142.61088 C 121.75093,142.61076 122.2943,142.64096 122.25726,142.678 C 122.22024,142.71504 120.26973,143.15551 117.92284,143.65682 C 112.95902,144.71712 110.96384,145.24669 110.22994,145.69868 C 109.64153,146.06106 109.22739,146.73897 109.22739,147.33971 C 109.22739,147.86487 110.25245,149.79669 110.89303,150.4788 C 111.99505,151.65224 113.25725,151.85274 120.66062,152.03042 C 128.20197,152.21141 129.82636,152.43568 132.33539,153.64228 C 136.44738,155.61974 136.73149,157.86707 133.08574,159.57736 C 130.79146,160.65366 128.61227,161.05339 121.98616,161.61338 C 117.78614,161.96834 117.48047,162.00808 116.19013,162.36689 C 114.72168,162.77522 113.89657,163.76249 113.89789,165.10962 C 113.89878,165.99966 114.37931,166.66283 115.37322,167.14568 C 116.52936,167.70734 117.63055,167.91734 123.47867,168.69139 C 130.275,169.59094 131.80399,170.10453 131.80399,171.48787 C 131.80399,172.68256 130.58936,173.79609 128.47064,174.54375 C 127.85067,174.76253 125.89414,175.24375 124.12279,175.61314 C 117.74075,176.944 115.88805,177.57698 114.69073,178.83561 C 113.28072,180.31783 113.20882,182.7844 114.5354,184.16304 C 115.73347,185.40811 117.12992,185.64394 124.92795,185.91812 C 129.6285,186.08339 130.59205,186.24326 131.40682,186.99312 L 131.8523,187.40309 L 131.44972,187.3102 C 130.63358,187.12189 127.24089,186.90877 123.55918,186.81454 C 119.34723,186.70674 116.34871,186.49572 115.04605,186.21543 C 114.57076,186.11317 113.77366,185.78366 113.2747,185.48319 C 111.75389,184.56737 111.09026,184.46529 106.00676,184.36517 C 98.259279,184.21258 89.127029,184.79008 78.470389,186.1065 C 73.022262,186.77951 70.669142,187.25037 69.91548,187.81834 C 69.590921,188.06294 68.606261,188.81243 67.72735,189.48388 C 66.732891,190.2436 65.646948,190.90785 64.852157,191.24258 C 63.712831,191.72241 63.375109,191.78785 61.723123,191.84885 C 60.462207,191.89541 59.408785,191.83537 58.42198,191.66071 C 57.624874,191.51963 56.733895,191.40397 56.442026,191.40369 C 55.15042,191.40243 54.636334,193.09459 55.596197,194.18781 C 55.857648,194.48558 56.346779,194.81131 56.683159,194.91165 C 57.019541,195.01198 59.033899,195.35558 61.159513,195.6752 C 63.285128,195.99482 66.720276,196.65149 68.793176,197.13446 C 72.835691,198.07635 75.27357,198.50625 78.470389,198.84096 C 81.250268,199.13202 94.941939,199.12948 97.391579,198.83746 C 102.6169,198.21454 106.16431,197.52466 109.71048,196.44177 C 112.27415,195.65891 113.52941,195.14135 116.87638,193.4872 C 120.31021,191.79012 121.03239,191.61594 126.85124,191.08131 C 129.13043,190.8719 130.87326,190.63134 131.40038,190.45338 C 132.45786,190.09638 132.52736,190.31436 131.61801,191.13591 C 130.26596,192.35742 128.98984,192.72419 123.39815,193.49841 C 118.99463,194.10813 117.36384,194.47385 116.14008,195.1261 C 114.90437,195.78472 114.3412,196.59102 114.2516,197.82984 C 114.0829,200.16196 115.88505,201.51548 120.17752,202.28056 C 121.32384,202.48488 121.2092,202.4928 117.92308,202.4364 C 115.28603,202.39114 114.19226,202.30856 113.33369,202.0899 C 109.80315,201.19075 90.488213,202.44023 78.148326,204.36604 C 74.580392,204.92287 72.81016,205.31259 70.551438,206.03854 C 67.980111,206.86496 67.395669,206.9697 63.736016,207.25993 C 60.020896,207.55456 58.810363,207.76042 58.150477,208.20978 C 57.547048,208.6207 57.103425,209.20743 56.970029,209.77104 C 56.872514,210.18302 56.878598,210.18556 59.82107,210.96186 C 61.44289,211.38974 64.40027,212.19146 66.393034,212.74348 C 72.517321,214.43997 74.975671,214.75281 82.174111,214.75176 C 93.025625,214.75018 104.37509,213.63818 109.24668,212.09924 C 109.98535,211.8659 111.93175,211.03448 113.57201,210.25166 C 115.21228,209.46883 116.91664,208.7151 117.35947,208.5767 C 118.58753,208.1929 120.57335,207.88101 124.20331,207.50182 C 126.01894,207.31216 127.97465,207.05965 128.54934,206.94068 C 129.12404,206.8217 129.62147,206.75159 129.65474,206.78487 C 129.68804,206.81815 129.27816,207.12788 128.74396,207.47315 C 127.40693,208.33732 125.43095,208.95337 120.90216,209.91797 C 116.65826,210.8219 114.21525,211.44268 113.55195,211.78569 C 112.52847,212.31495 112.15534,213.48295 112.70988,214.4217 C 113.07871,215.04607 114.30247,215.80201 115.7085,216.27399 C 117.11377,216.74574 118.84869,217.04034 122.83454,217.48408 C 124.42875,217.66156 125.97567,217.84886 126.27214,217.9003 C 126.80406,217.9926 126.80727,217.99821 126.51369,218.32524 C 125.56682,219.38003 122.72778,220.79094 120.27632,221.425 C 116.66005,222.36033 114.8673,222.54027 101.65891,223.29366 C 95.456812,223.64742 92.857389,224.21253 91.475355,225.50755 C 91.232717,225.73491 91.008169,225.88998 90.976354,225.85215 C 90.845195,225.6962 90.386471,222.99648 90.386587,222.38118 C 90.386819,221.16124 88.792811,221.3062 106.97295,220.87286 C 116.14911,220.65413 118.48218,220.50205 119.0503,220.08557 C 119.57757,219.69905 119.56039,219.39404 119.00294,219.24496 C 117.77811,218.91739 111.67672,218.57449 100.45118,218.20235 C 89.479013,217.83861 83.186284,217.82936 80.161219,218.17253 C 68.829165,219.45807 60.502663,221.88797 57.979853,224.64567 C 57.191925,225.50696 57.191716,226.65856 57.979364,227.3889 L 58.418686,227.79627 L 57.695697,227.77758 C 57.298045,227.76732 56.827769,227.72644 56.650634,227.68675 L 56.650634,227.68675 z M 89.178977,181.57896 C 98.782547,181.02044 107.20412,179.71485 110.44321,178.28237 C 110.96361,178.05222 111.9094,177.47254 112.54494,176.99419 C 114.68836,175.38092 115.58095,175.18788 124.44485,174.42064 C 128.81536,174.04234 129.71604,173.83229 130.47886,173.01351 C 130.90882,172.55202 130.91698,171.586 130.49419,171.20338 C 129.62448,170.4163 128.18334,170.33253 121.0632,170.65514 C 115.79976,170.89363 114.76891,170.78903 112.81911,169.81857 C 111.68679,169.25498 111.16775,169.10095 109.81546,168.92714 C 101.01868,167.79652 84.589162,167.56378 76.860075,168.46029 C 71.891363,169.03663 68.030211,169.90267 65.827645,170.93483 C 65.099625,171.27599 63.866854,172.03569 63.088154,172.62305 C 62.309453,173.21041 61.375791,173.77209 61.013347,173.87123 C 60.563535,173.99426 59.367551,174.01644 57.245505,173.9411 C 54.319526,173.83722 54.09672,173.85006 53.45775,174.15938 C 52.624591,174.56271 52.225435,175.20494 52.109447,176.32875 C 51.999798,177.39113 52.250572,178.19164 52.888366,178.81521 C 53.680017,179.58919 54.458662,179.71675 57.428995,179.5591 C 62.009331,179.31599 62.634394,179.34512 63.768507,179.85452 C 65.380821,180.57872 68.091867,181.10089 72.27068,181.49211 C 75.018849,181.74939 85.337142,181.8024 89.178977,181.57896 z M 105.6847,164.03143 C 109.39695,163.71791 111.53104,163.17716 112.68956,162.25649 C 113.9592,161.24751 115.64268,160.88578 123.55918,159.92093 C 131.83589,158.91219 133.06003,158.56059 133.06003,157.19204 C 133.06003,156.78336 132.93746,156.54588 132.56459,156.23212 C 132.29209,156.00283 132.02035,155.81517 131.96072,155.8151 C 131.90109,155.81503 131.33758,155.70758 130.70848,155.57634 C 130.07938,155.44509 126.99965,155.15314 123.86464,154.92757 C 113.42712,154.17656 111.50758,153.86623 108.84685,152.49971 C 107.88476,152.00557 106.79778,151.49165 106.43138,151.35767 C 102.63789,149.97042 94.489473,149.59491 81.127407,150.19154 C 74.965555,150.46668 67.764487,151.16745 66.696947,151.59583 C 66.454308,151.6932 65.691227,152.54351 64.894192,153.60467 C 63.143668,155.93529 62.037283,156.96192 60.894697,157.31585 C 60.420371,157.46278 58.438083,157.83571 56.489603,158.14458 C 51.618588,158.91673 51.417114,158.98743 51.417114,159.92457 C 51.417114,161.01384 53.138906,161.93128 56.501944,162.63396 C 59.780698,163.31903 64.726987,163.678 77.906779,164.18736 C 82.529113,164.36601 103.08972,164.25059 105.6847,164.03143 L 105.6847,164.03143 z"
       style="fill:#502d16" />
    <path
       id="path2672"
       d="M 46.779902,141.82183 C 45.665516,140.75337 45.299255,140.11169 45.298522,139.22649 C 45.297712,138.24437 45.734668,137.48184 46.658178,136.85378 L 47.427723,136.33043 L 57.836315,136.3412 C 66.967433,136.35065 68.156772,136.37943 67.526885,136.57569 C 67.131976,136.69873 66.04338,137.19714 65.107775,137.68325 C 62.80172,138.88141 63.018505,138.842 54.415422,139.62738 C 52.034683,139.84472 50.056933,140.05241 50.020429,140.08891 C 49.98392,140.12541 49.913769,140.40355 49.864528,140.70699 L 49.774994,141.25871 L 52.085595,141.87646 C 53.356424,142.21622 54.426388,142.52041 54.463291,142.55244 C 54.50019,142.58446 52.971643,142.61066 51.06651,142.61066 L 47.602632,142.61066 L 46.779902,141.82183 z"
       style="fill:#502d16" />
    <path
       id="path2674"
       d="M 107.69759,136.80989 C 106.90048,136.746 105.70483,136.53842 105.04057,136.34859 C 100.67444,135.10083 78.989894,134.91687 70.499335,136.05555 C 69.436648,136.19807 66.322398,136.22765 58.824558,136.16646 C 53.200536,136.12055 50.193275,136.06495 52.141755,136.04289 C 56.899212,135.98904 58.26012,135.8286 60.577254,135.04846 C 62.8753,134.27474 65.000977,133.97003 69.600995,133.75493 C 80.689603,133.23643 98.52578,134.08233 107.21449,135.53879 C 108.97558,135.83399 113.26746,136.73114 113.65575,136.88523 C 113.92665,136.99273 109.23959,136.93346 107.69759,136.80989 z"
       style="fill:#502d16" />
    <path
       id="path2676"
       d="M 42.221207,221.79812 C 42.221207,221.63794 42.551461,220.86824 42.955108,220.08768 C 43.451784,219.1272 43.620621,217.95676 43.477432,216.46657 L 43.265854,214.26467 L 46.045656,214.16774 C 51.851125,213.96529 63.801135,214.96662 66.9698,215.92105 C 67.78169,216.16559 67.78169,216.18948 66.9698,216.72846 C 65.886279,217.44778 60.481073,219.75885 59.301167,220.00732 C 54.07981,221.10685 42.221207,222.35021 42.221207,221.79812 L 42.221207,221.79812 z"
       style="fill:#502d16" />
    <path
       id="path2678"
       d="M 45.987471,206.66159 C 46.43062,206.54611 47.045499,206.5537 47.353863,206.67846 C 47.662222,206.80323 47.299649,206.89771 46.54813,206.88843 C 45.796612,206.87915 45.544312,206.77707 45.987466,206.66159 L 45.987471,206.66159 z"
       style="fill:#502d16" />
    <path
       id="path2680"
       d="M 41.651875,205.31715 C 40.535434,205.119 40.399345,204.90019 40.399345,203.30325 C 40.399345,202.31786 40.348105,201.35792 40.285479,201.17004 C 40.119839,200.67312 45.696715,198.89596 49.155771,198.34337 C 51.79391,197.92192 52.364185,197.97342 54.238057,198.80233 C 55.849284,199.51505 63.825156,200.97831 66.47475,201.04728 C 66.662629,201.05217 66.816349,201.33071 66.816349,201.66626 C 66.816349,203.37317 58.983949,205.08088 49.977085,205.33774 C 46.087122,205.44867 42.340767,205.43941 41.651875,205.31715 L 41.651875,205.31715 z"
       style="fill:#502d16" />
    <path
       id="path2682"
       d="M 42.949579,186.88892 C 42.785156,185.8606 42.340011,184.4186 41.96038,183.68448 L 41.270136,182.34971 L 43.681398,181.28892 C 47.947239,179.41224 47.996279,179.41141 49.955218,181.18119 C 51.887394,182.9268 52.745204,183.15006 58.646718,183.44327 C 64.315984,183.72495 67.373065,185.57783 63.826145,186.5825 C 63.090964,186.79075 60.337351,187.07646 57.707037,187.21742 C 55.076724,187.35838 51.447332,187.76281 49.641726,188.11616 C 47.83611,188.46951 45.658998,188.7586 44.803684,188.7586 C 43.334944,188.7586 43.231954,188.65474 42.949588,186.88893 L 42.949579,186.88892 z"
       style="fill:#502d16" />
    <path
       id="path2684"
       d="M 38.153959,171.59466 C 38.726101,170.08978 38.688639,167.49953 38.078224,166.35896 C 37.586221,165.43965 37.65082,165.42927 42.519014,165.64539 C 47.319261,165.8585 47.574486,165.92441 51.53797,167.97461 C 53.781379,169.13506 55.972583,170.08451 56.407344,170.08451 C 56.842113,170.08451 57.324483,170.28947 57.479305,170.53998 C 57.645563,170.80899 57.136375,170.99544 56.235483,170.99544 C 55.396565,170.99544 53.591063,171.27889 52.223277,171.62533 C 50.855496,171.97176 47.035046,172.35724 43.733399,172.48193 L 37.730408,172.70865 L 38.153959,171.59466 z"
       style="fill:#502d16" />
    <path
       id="path2686"
       d="M 37.970206,154.29504 C 37.803191,154.12803 37.666552,152.38588 37.666552,150.42358 L 37.666552,146.85577 L 39.91422,146.85577 C 42.518139,146.85577 44.318312,146.26627 45.71799,144.95524 L 46.70973,144.02633 L 49.432763,145.70708 C 52.795251,147.78253 54.51856,148.19747 59.833246,148.21129 C 64.057849,148.22229 65.449952,148.45807 65.449952,149.16262 C 65.449952,149.7486 61.707947,151.8205 58.025162,153.27364 C 54.857631,154.52347 54.467329,154.56786 46.510177,154.583 C 41.98018,154.59162 38.137198,154.46204 37.970197,154.29503 L 37.970206,154.29504 z"
       style="fill:#502d16" />
    <path
       id="path2688"
       d="M 145.38416,151.85646 C 142.6286,151.67233 134.63518,151.28104 127.62101,150.98692 C 111.89824,150.32765 112.09159,150.35486 111.22538,148.67982 C 110.32921,146.94682 110.30994,147.00074 112.02131,146.45029 C 117.76869,144.60168 122.12203,144.14666 135.26486,144.02079 C 149.69551,143.8826 149.23458,143.79405 149.24865,146.70695 C 149.25284,147.57619 149.70949,148.69164 150.39428,149.5055 C 151.60915,150.94926 151.90183,152.3635 150.96362,152.25631 C 150.65048,152.22054 148.13973,152.04061 145.38416,151.85647 L 145.38416,151.85646 z"
       style="fill:#502d16" />
    <path
       id="path2690"
       d="M 151.53295,170.28536 C 149.90466,169.95455 143.65339,169.25446 137.64125,168.72961 C 120.77527,167.25725 115.0957,166.34193 115.0957,165.09616 C 115.0957,163.98139 117.44622,163.31689 123.10534,162.83183 C 126.38332,162.55086 129.76379,162.12065 130.61751,161.87582 C 133.84494,160.95019 149.84595,161.65044 152.01693,162.81232 C 152.57004,163.10834 152.89935,163.76457 152.89935,164.57085 C 152.89935,165.35458 153.52046,166.63846 154.48906,167.85695 C 157.09719,171.13799 156.82605,171.36077 151.53295,170.28537 L 151.53295,170.28536 z"
       style="fill:#502d16" />
    <path
       id="path2692"
       d="M 118.43722,184.26735 C 116.00385,183.82861 115.0957,183.05168 115.0957,181.40869 C 115.0957,180.41159 115.45447,179.87319 116.57155,179.19384 C 117.96509,178.34637 123.35848,176.90606 125.34368,176.85123 C 126.46344,176.82031 146.14397,179.44276 150.00759,180.13774 C 152.76261,180.6333 152.81235,180.66854 152.99795,182.25862 L 153.18674,183.87556 L 148.14683,183.62822 C 145.37483,183.49216 140.2374,183.56111 136.73032,183.78142 C 125.59865,184.48069 120.38812,184.6191 118.43722,184.26735 z"
       style="fill:#502d16" />
    <path
       id="path2696"
       d="M 122.76105,201.28114 C 118.47034,200.68735 116.58189,200.07389 115.89973,199.05226 C 115.22264,198.03821 115.58387,196.96347 116.8159,196.32636 C 118.19442,195.6135 126.93781,194.18883 126.93781,194.67707 C 126.93781,194.8424 131.8056,194.88924 137.75511,194.78118 L 148.57242,194.58469 L 149.56925,196.6801 L 150.56613,198.77552 L 149.56925,198.99452 C 146.9317,199.574 142.48462,200.18029 136.04712,200.83804 C 132.16427,201.23476 128.57748,201.63391 128.07647,201.72502 C 127.57546,201.81612 125.18354,201.61638 122.76105,201.28114 z"
       style="fill:#502d16" />
    <path
       id="path2698"
       d="M 54.063313,236.55427 C 50.250073,236.20297 46.717044,235.64004 43.587604,234.88512 C 42.163737,234.54164 41.978476,234.3215 41.853027,232.82408 C 41.691975,230.90161 41.461113,231.0053 47.686794,230.20415 C 53.984991,229.39368 64.414606,229.13976 68.351778,229.70106 C 72.386069,230.2762 76.099457,231.71059 75.829385,232.58947 C 75.517454,233.60454 71.735305,235.09201 66.956496,236.07908 C 62.103469,237.08148 60.448262,237.14249 54.063313,236.55427 L 54.063313,236.55427 z"
       style="fill:#502d16" />
    <path
       id="path2702"
       d="M 127.6979,217.63169 C 134.30019,215.37725 138.16494,214.25003 138.16494,214.25003"
       style="fill:#502d16;fill-opacity:1;fill-rule:evenodd;stroke:#000000;stroke-width:1px;stroke-linecap:butt;stroke-linejoin:miter;stroke-opacity:1" />
    <path
       id="path2704"
       d="M 127.34342,216.68534 C 127.25485,216.65089 125.37079,216.39881 123.1566,216.12516 C 117.03139,215.36816 114.52635,214.74934 114.06002,213.878 C 113.64619,213.10475 114.754,212.67656 120.33855,211.45121 C 122.33132,211.01397 124.50524,210.50833 125.1695,210.32758 C 126.16018,210.058 127.18759,209.97142 130.88611,209.84587 C 135.95335,209.67385 142.44201,209.31573 146.93848,208.95992 C 148.59333,208.82897 149.98827,208.72183 150.03833,208.72183 C 150.0884,208.72183 150.12936,209.80879 150.12936,211.1373 L 150.12936,213.55277 L 145.49971,213.55659 C 139.58918,213.56146 137.51086,213.7173 135.94457,214.27309 C 130.22141,216.30393 127.97938,216.93271 127.34342,216.68534 z"
       style="fill:#502d16;fill-opacity:1" />
    <path
       id="path2706"
       d="M 130.88521,207.37781 C 131.92,206.02119 132.0572,204.29935 131.20556,203.35829 C 130.87754,202.99582 130.7683,202.69926 130.96283,202.69926 C 132.39791,202.69926 144.34602,201.26712 147.38919,200.73035 C 149.46314,200.36453 151.35636,200.04194 151.59642,200.01348 C 151.83649,199.98501 152.47598,200.50299 153.01756,201.16455 C 153.98665,202.34839 153.99608,202.39472 153.61444,204.10002 C 152.90181,207.28439 153.02532,207.24209 142.5405,207.89332 C 137.5388,208.20398 132.67826,208.46676 131.73929,208.47727 L 130.03206,208.49639 L 130.88521,207.37781 z"
       style="fill:#552200;fill-opacity:1" />
    <path
       id="path2708"
       d="M 131.65088,192.76684 C 133.00715,191.85124 133.184,191.61558 133.59083,190.18171 C 134.02001,188.66902 133.68152,187.36376 132.57246,186.2547 C 132.05169,185.73394 131.74547,185.29745 131.89195,185.28472 C 138.03449,184.75093 153.34796,184.8856 155.25277,185.49017 C 156.59139,185.91503 155.47966,190.08063 153.69347,191.33284 C 153.18571,191.68881 151.82824,192.28073 150.67687,192.64823 C 148.80871,193.2445 147.61057,193.32865 139.54139,193.4303 L 130.49935,193.5442 L 131.65088,192.76684 z"
       style="fill:#552200;fill-opacity:1" />
    <path
       id="path2710"
       d="M 152.8867,179.35877 C 152.54773,179.01981 131.21709,175.97893 129.11596,175.97002 C 128.85976,175.96893 129.3911,175.59881 130.2967,175.14752 C 132.6981,173.95087 133.68687,172.08917 132.81433,170.40736 L 132.36509,169.54145 L 134.19402,169.70034 C 149.38521,171.02003 155.54797,171.93771 156.39348,173.006 C 157.27291,174.11713 156.6073,177.07345 155.14952,178.53124 C 154.26771,179.41304 153.29624,179.76831 152.8867,179.35876 L 152.8867,179.35877 z"
       style="fill:#552200;fill-opacity:1" />
    <path
       id="path2712"
       d="M 153.206,161.79003 C 151.82715,160.98496 147.61112,160.44268 141.41196,160.27306 C 135.8756,160.12157 134.97682,160.02982 135.49232,159.66876 C 136.37506,159.05047 137.12408,157.26491 136.92669,156.24948 C 136.83284,155.76664 136.09789,154.76491 135.29348,154.02342 L 133.83086,152.67524 L 139.70448,152.89575 C 142.93496,153.01703 147.46507,153.26757 149.77139,153.45251 C 153.31212,153.73643 154.15309,153.71339 155.17512,153.30445 L 156.3855,152.82014 L 156.72431,154.86478 C 157.15983,157.49309 156.84308,158.82297 155.34659,160.64926 C 154.04987,162.23173 154.0042,162.25608 153.206,161.79003 z"
       style="fill:#552200;fill-opacity:1" />
    <path
       id="path2714"
       d="M 151.20051,148.31542 C 150.83771,147.91457 150.59397,147.02562 150.5226,145.84329 C 150.44131,144.49578 150.22727,143.81306 149.7303,143.31581 C 149.0671,142.65225 148.75998,142.63213 137.91526,142.54189 L 126.7811,142.44923 L 128.08935,141.50154 C 129.80585,140.25811 130.49812,138.94318 130.05284,137.77199 L 129.72092,136.89902 L 137.53639,137.1282 C 146.45727,137.38981 149.74881,137.72777 151.75617,138.58821 C 153.39985,139.29278 154.1546,140.25557 155.66994,143.5808 L 156.77445,146.00449 L 155.02098,146.51424 C 153.83463,146.85912 153.02484,147.33407 152.51723,147.98267 C 151.77923,148.92564 151.75765,148.93109 151.20048,148.31542 L 151.20051,148.31542 z"
       style="fill:#552200;fill-opacity:1" />
    <path
       id="path2716"
       d="M 38.168777,145.48557 C 37.411259,145.26601 37.674652,144.03493 38.793852,142.56407 C 39.466815,141.67965 43.372542,138.60876 43.824422,138.60876 C 43.90783,138.60876 43.988712,139.05377 44.004175,139.59767 C 44.019634,140.14157 44.410054,141.08185 44.87176,141.68718 C 45.902458,143.03851 45.632241,143.76874 43.745214,144.73142 C 42.474666,145.37961 39.289388,145.81038 38.168783,145.48557 L 38.168777,145.48557 z"
       style="fill:#552200;fill-opacity:1" />
    <path
       id="path2718"
       d="M 36.169272,163.34292 C 35.912514,162.17349 36.291347,159.75304 37.053863,157.69098 L 37.679099,156.00015 L 42.146735,156.00015 L 46.614355,156.00015 L 45.951988,157.49754 C 45.189839,159.22053 45.251798,161.34675 46.114562,163.0762 C 46.409385,163.66716 46.650523,164.16465 46.650449,164.18172 C 46.650378,164.19879 44.335046,164.21275 41.505273,164.21275 L 36.360243,164.21275 L 36.169272,163.34292 z"
       style="fill:#552200;fill-opacity:1" />
    <path
       id="path2720"
       d="M 39.130701,177.9366 C 38.306867,176.18516 37.632825,174.61281 37.632825,174.44249 C 37.632825,174.11929 42.317103,173.71814 46.124536,173.71527 C 48.261088,173.71367 48.329443,173.73816 48.141828,174.43825 C 48.035013,174.8368 47.94565,175.83188 47.943231,176.64953 L 47.938835,178.13618 L 45.925943,178.86476 C 44.818852,179.26549 43.229459,179.93709 42.393957,180.3572 C 41.558452,180.77731 40.81945,181.12105 40.75172,181.12105 C 40.683981,181.12105 39.954528,179.68805 39.130698,177.9366 L 39.130701,177.9366 z"
       style="fill:#552200;fill-opacity:1" />
    <path
       id="path2722"
       d="M 38.563474,199.04615 C 38.111482,198.05413 38.522679,196.15085 39.748195,193.56252 C 41.116836,190.67191 41.785023,190.25455 45.431341,190.01279 C 47.152065,189.89871 48.80055,189.71303 49.094625,189.60019 C 49.579471,189.41414 49.576763,189.4752 49.065662,190.25524 C 48.204798,191.56909 48.543376,194.00975 49.804139,195.5786 L 50.796003,196.81284 L 48.718417,197.00685 C 47.033204,197.16422 42.390617,198.49061 39.492171,199.64279 C 39.089767,199.80275 38.833063,199.63783 38.563474,199.04615 L 38.563474,199.04615 z"
       style="fill:#552200;fill-opacity:1" />
    <path
       id="path2726"
       d="M 39.947417,211.79297 C 38.671256,210.18168 38.377518,208.87986 39.015415,207.6624 L 39.495772,206.7456 L 46.535353,206.73532 L 53.574934,206.72504 L 52.689262,207.58594 C 51.571436,208.6725 51.474141,210.5672 52.47109,211.83461 L 53.138584,212.6832 L 49.944063,212.6832 C 48.187075,212.6832 45.450723,212.7754 43.863282,212.88808 L 40.977019,213.09295 L 39.947417,211.79297 z"
       style="fill:#552200;fill-opacity:1" />
    <path
       id="path2728"
       d="M 41.381662,228.3934 C 40.703253,223.52183 40.690348,223.71796 41.702108,223.52284 C 42.209586,223.42497 44.146546,223.25304 46.006458,223.14078 C 47.866371,223.02852 50.89886,222.73111 52.745323,222.47985 C 54.591786,222.2286 56.156667,222.02303 56.222835,222.02303 C 56.289006,222.02303 55.611598,222.75457 54.717491,223.64868 C 53.431114,224.93506 53.09184,225.49293 53.09184,226.3218 C 53.09184,226.89791 53.257731,227.53516 53.460486,227.73791 C 53.929728,228.20716 53.617366,228.27013 47.455741,228.94839 C 44.798723,229.24087 42.388279,229.54579 42.099202,229.62599 C 41.690868,229.73927 41.530781,229.46427 41.381653,228.39341 L 41.381662,228.3934 z"
       style="fill:#552200;fill-opacity:1" />
  </g>
  <g
     inkscape:groupmode="layer"
     id="layer1"
     inkscape:label="fondo"
     style="opacity:0.28491618;display:none"
     transform="translate(-22.377045,-95.344377)" />
</svg>
