<?xml version="1.0" encoding="UTF-8" standalone="no"?>
<!-- Created with Inkscape (http://www.inkscape.org/) -->
<svg
   xmlns:dc="http://purl.org/dc/elements/1.1/"
   xmlns:cc="http://creativecommons.org/ns#"
   xmlns:rdf="http://www.w3.org/1999/02/22-rdf-syntax-ns#"
   xmlns:svg="http://www.w3.org/2000/svg"
   xmlns="http://www.w3.org/2000/svg"
   xmlns:sodipodi="http://sodipodi.sourceforge.net/DTD/sodipodi-0.dtd"
   xmlns:inkscape="http://www.inkscape.org/namespaces/inkscape"
   width="48"
   height="48"
   id="svg3027"
   sodipodi:version="0.32"
   inkscape:version="0.46"
   version="1.0"
   sodipodi:docname="nuevo_Pedido.svg"
   inkscape:output_extension="org.inkscape.output.svg.inkscape">
  <defs
     id="defs3029">
    <inkscape:perspective
       sodipodi:type="inkscape:persp3d"
       inkscape:vp_x="0 : 526.18109 : 1"
       inkscape:vp_y="0 : 1000 : 0"
       inkscape:vp_z="744.09448 : 526.18109 : 1"
       inkscape:persp3d-origin="372.04724 : 350.78739 : 1"
       id="perspective3035" />
  </defs>
  <sodipodi:namedview
     id="base"
     pagecolor="#ffffff"
     bordercolor="#666666"
     borderopacity="1.0"
     inkscape:pageopacity="0.0"
     inkscape:pageshadow="2"
     inkscape:zoom="7.9195959"
     inkscape:cx="25.632549"
     inkscape:cy="20.474868"
     inkscape:document-units="px"
     inkscape:current-layer="layer1"
     showgrid="false"
     inkscape:window-width="1388"
     inkscape:window-height="717"
     inkscape:window-x="0"
     inkscape:window-y="129" />
  <metadata
     id="metadata3032">
    <rdf:RDF>
      <cc:Work
         rdf:about="">
        <dc:format>image/svg+xml</dc:format>
        <dc:type
           rdf:resource="http://purl.org/dc/dcmitype/StillImage" />
      </cc:Work>
    </rdf:RDF>
  </metadata>
  <g
     inkscape:label="Capa 1"
     inkscape:groupmode="layer"
     id="layer1">
    <rect
       style="fill:#cccccc;fill-opacity:1;stroke:#000000;stroke-opacity:1"
       id="rect3041"
       width="33.840111"
       height="35.229073"
       x="11.111678"
       y="9.9930105" />
    <path
       sodipodi:type="spiral"
       style="fill:none;fill-rule:evenodd;stroke:#000000;stroke-width:1px;stroke-linecap:butt;stroke-linejoin:miter;stroke-opacity:1"
       id="path3813"
       sodipodi:cx="5.3033009"
       sodipodi:cy="4.8159785"
       sodipodi:expansion="1"
       sodipodi:revolution="3"
       sodipodi:radius="8.5126333"
       sodipodi:argument="-19.213535"
       sodipodi:t0="0"
       d="M 5.3033009,4.8159785 C 5.7021494,4.664036 5.7048941,5.2786553 5.5558393,5.478891 C 5.1519099,6.0215174 4.3366235,5.7723837 3.9774758,5.3210554 C 3.3350448,4.5137349 3.7404623,3.3468743 4.5456856,2.827241 C 5.7273831,2.0646582 7.2867653,2.6436992 7.9549509,3.8058248 C 8.8455372,5.3547555 8.0865833,7.3182611 6.565993,8.1305411 C 4.6524853,9.1527125 2.2800214,8.2111292 1.3258258,6.3312091 C 0.17016705,4.0543739 1.2957704,1.2704642 3.5355319,0.17559095 C 6.1750133,-1.1146792 9.3718237,0.19574541 10.606601,2.7956711 C 12.0322,5.7973883 10.536452,9.4080261 7.5761467,10.782191 C 4.2124598,12.343605 0.18736646,10.662198 -1.3258242,7.3413628 C -3.0233955,3.615888 -1.1560949,-0.82410648 2.5253782,-2.4760591 C 6.612511,-4.3100396 11.467735,-2.2566748 13.258251,1.7855174"
       transform="translate(5.6821081,5.1770318)" />
    <path
       transform="translate(-3.2829958,-5.6821081)"
       style="font-size:4px;font-style:normal;font-weight:normal;fill:#000000;fill-opacity:1;stroke:none;stroke-width:1px;stroke-linecap:butt;stroke-linejoin:miter;stroke-opacity:1;font-family:Bitstream Vera Sans"
       d="M 19.347656,20.579462 L 20.410156,20.579462 L 22.996094,25.458368 L 22.996094,20.579462 L 23.761719,20.579462 L 23.761719,26.411493 L 22.699219,26.411493 L 20.113281,21.532587 L 20.113281,26.411493 L 19.347656,26.411493 L 19.347656,20.579462 M 26.996094,22.5404 C 26.610675,22.540403 26.305988,22.691445 26.082031,22.993525 C 25.858072,23.293007 25.746093,23.704465 25.746094,24.2279 C 25.746093,24.751339 25.85677,25.164099 26.078125,25.466181 C 26.302082,25.765661 26.608071,25.9154 26.996094,25.9154 C 27.378903,25.9154 27.682289,25.764359 27.90625,25.462275 C 28.130205,25.160192 28.242184,24.748735 28.242188,24.2279 C 28.242184,23.709673 28.130205,23.299517 27.90625,22.997431 C 27.682289,22.692747 27.378903,22.540403 26.996094,22.5404 M 26.996094,21.931025 C 27.621091,21.931029 28.111976,22.134154 28.46875,22.5404 C 28.825517,22.946653 29.003902,23.509152 29.003906,24.2279 C 29.003902,24.944047 28.825517,25.506546 28.46875,25.9154 C 28.111976,26.32165 27.621091,26.524774 26.996094,26.524775 C 26.368488,26.524774 25.876301,26.32165 25.519531,25.9154 C 25.165364,25.506546 24.988281,24.944047 24.988281,24.2279 C 24.988281,23.509152 25.165364,22.946653 25.519531,22.5404 C 25.876301,22.134154 26.368488,21.931029 26.996094,21.931025 M 30.902344,20.794306 L 30.902344,22.036493 L 32.382812,22.036493 L 32.382812,22.595087 L 30.902344,22.595087 L 30.902344,24.970087 C 30.902342,25.326859 30.950519,25.556025 31.046875,25.657587 C 31.145832,25.75915 31.34505,25.809931 31.644531,25.809931 L 32.382812,25.809931 L 32.382812,26.411493 L 31.644531,26.411493 C 31.089842,26.411493 30.70703,26.308629 30.496094,26.1029 C 30.285155,25.894567 30.179687,25.516963 30.179688,24.970087 L 30.179688,22.595087 L 29.652344,22.595087 L 29.652344,22.036493 L 30.179688,22.036493 L 30.179688,20.794306 L 30.902344,20.794306 M 35.320312,24.212275 C 34.739581,24.212277 34.337238,24.278683 34.113281,24.411493 C 33.889322,24.544308 33.777343,24.77087 33.777344,25.091181 C 33.777343,25.34639 33.860676,25.549515 34.027344,25.700556 C 34.196613,25.848994 34.425779,25.923213 34.714844,25.923212 C 35.113279,25.923213 35.432289,25.782588 35.671875,25.501337 C 35.914059,25.217484 36.035153,24.841182 36.035156,24.372431 L 36.035156,24.212275 L 35.320312,24.212275 M 36.753906,23.9154 L 36.753906,26.411493 L 36.035156,26.411493 L 36.035156,25.747431 C 35.87109,26.013056 35.666664,26.209671 35.421875,26.337275 C 35.177081,26.462274 34.877602,26.524774 34.523438,26.524775 C 34.075519,26.524774 33.718749,26.399775 33.453125,26.149775 C 33.190104,25.897171 33.058593,25.559932 33.058594,25.138056 C 33.058593,24.64587 33.222656,24.274777 33.550781,24.024775 C 33.881509,23.774777 34.373696,23.649777 35.027344,23.649775 L 36.035156,23.649775 L 36.035156,23.579462 C 36.035153,23.248736 35.925778,22.993528 35.707031,22.813837 C 35.490883,22.631549 35.186195,22.540403 34.792969,22.5404 C 34.542967,22.540403 34.299477,22.570351 34.0625,22.630243 C 33.82552,22.690143 33.597655,22.779987 33.378906,22.899775 L 33.378906,22.235712 C 33.641926,22.134154 33.897134,22.058633 34.144531,22.00915 C 34.391925,21.957071 34.63281,21.931029 34.867188,21.931025 C 35.499997,21.931029 35.972653,22.095091 36.285156,22.423212 C 36.597652,22.751341 36.753902,23.248736 36.753906,23.9154 M 22.195312,32.700556 L 22.195312,30.333368 L 22.914062,30.333368 L 22.914062,36.411493 L 22.195312,36.411493 L 22.195312,35.755243 C 22.044267,36.01566 21.852861,36.209671 21.621094,36.337275 C 21.391924,36.462274 21.115883,36.524774 20.792969,36.524775 C 20.264321,36.524774 19.833332,36.313837 19.5,35.891962 C 19.16927,35.470088 19.003906,34.915401 19.003906,34.2279 C 19.003906,33.540402 19.16927,32.985715 19.5,32.563837 C 19.833332,32.141966 20.264321,31.931029 20.792969,31.931025 C 21.115883,31.931029 21.391924,31.994831 21.621094,32.122431 C 21.852861,32.247435 22.044267,32.440143 22.195312,32.700556 M 19.746094,34.2279 C 19.746093,34.756547 19.854165,35.171911 20.070312,35.473993 C 20.289061,35.773473 20.58854,35.923213 20.96875,35.923212 C 21.348956,35.923213 21.648434,35.773473 21.867188,35.473993 C 22.085934,35.171911 22.195309,34.756547 22.195312,34.2279 C 22.195309,33.699256 22.085934,33.285194 21.867188,32.985712 C 21.648434,32.683632 21.348956,32.532591 20.96875,32.532587 C 20.58854,32.532591 20.289061,32.683632 20.070312,32.985712 C 19.854165,33.285194 19.746093,33.699256 19.746094,34.2279 M 28.136719,34.044306 L 28.136719,34.395868 L 24.832031,34.395868 C 24.86328,34.890661 25.011717,35.268265 25.277344,35.528681 C 25.545571,35.786494 25.917966,35.9154 26.394531,35.9154 C 26.67057,35.9154 26.937497,35.881546 27.195312,35.813837 C 27.455725,35.746129 27.713538,35.644567 27.96875,35.50915 L 27.96875,36.188837 C 27.710933,36.298212 27.446611,36.381545 27.175781,36.438837 C 26.904945,36.496129 26.630205,36.524774 26.351562,36.524775 C 25.653644,36.524774 25.100259,36.32165 24.691406,35.9154 C 24.285156,35.50915 24.082031,34.959672 24.082031,34.266962 C 24.082031,33.550819 24.274739,32.983111 24.660156,32.563837 C 25.048176,32.141966 25.570311,31.931029 26.226562,31.931025 C 26.815101,31.931029 27.279944,32.121133 27.621094,32.501337 C 27.964839,32.878945 28.136714,33.393267 28.136719,34.044306 M 27.417969,33.833368 C 27.412757,33.440142 27.30208,33.12634 27.085938,32.891962 C 26.872393,32.657591 26.588539,32.540403 26.234375,32.5404 C 25.833331,32.540403 25.511717,32.653685 25.269531,32.880243 C 25.029947,33.106809 24.891926,33.425819 24.855469,33.837275 L 27.417969,33.833368 M 20.136719,41.2279 L 20.136719,43.419306 L 21.128906,43.419306 C 21.496091,43.419309 21.779945,43.324257 21.980469,43.13415 C 22.180986,42.944049 22.281246,42.673216 22.28125,42.32165 C 22.281246,41.972696 22.180986,41.703165 21.980469,41.513056 C 21.779945,41.322957 21.496091,41.227905 21.128906,41.2279 L 20.136719,41.2279 M 19.347656,40.579462 L 21.128906,40.579462 C 21.782549,40.579468 22.276038,40.727905 22.609375,41.024775 C 22.945308,41.31905 23.113277,41.751342 23.113281,42.32165 C 23.113277,42.897174 22.945308,43.332069 22.609375,43.626337 C 22.276038,43.92061 21.782549,44.067746 21.128906,44.067743 L 20.136719,44.067743 L 20.136719,46.411493 L 19.347656,46.411493 L 19.347656,40.579462 M 27.605469,44.044306 L 27.605469,44.395868 L 24.300781,44.395868 C 24.33203,44.890661 24.480467,45.268265 24.746094,45.528681 C 25.014321,45.786494 25.386716,45.9154 25.863281,45.9154 C 26.13932,45.9154 26.406247,45.881546 26.664062,45.813837 C 26.924475,45.746129 27.182288,45.644567 27.4375,45.50915 L 27.4375,46.188837 C 27.179683,46.298212 26.915361,46.381545 26.644531,46.438837 C 26.373695,46.496129 26.098955,46.524774 25.820312,46.524775 C 25.122394,46.524774 24.569009,46.32165 24.160156,45.9154 C 23.753906,45.50915 23.550781,44.959672 23.550781,44.266962 C 23.550781,43.550819 23.743489,42.983111 24.128906,42.563837 C 24.516926,42.141966 25.039061,41.931029 25.695312,41.931025 C 26.283851,41.931029 26.748694,42.121133 27.089844,42.501337 C 27.433589,42.878945 27.605464,43.393267 27.605469,44.044306 M 26.886719,43.833368 C 26.881507,43.440142 26.77083,43.12634 26.554688,42.891962 C 26.341143,42.657591 26.057289,42.540403 25.703125,42.5404 C 25.302081,42.540403 24.980467,42.653685 24.738281,42.880243 C 24.498697,43.106809 24.360676,43.425819 24.324219,43.837275 L 26.886719,43.833368 M 31.664062,42.700556 L 31.664062,40.333368 L 32.382812,40.333368 L 32.382812,46.411493 L 31.664062,46.411493 L 31.664062,45.755243 C 31.513017,46.01566 31.321611,46.209671 31.089844,46.337275 C 30.860674,46.462274 30.584633,46.524774 30.261719,46.524775 C 29.733071,46.524774 29.302082,46.313837 28.96875,45.891962 C 28.63802,45.470088 28.472656,44.915401 28.472656,44.2279 C 28.472656,43.540402 28.63802,42.985715 28.96875,42.563837 C 29.302082,42.141966 29.733071,41.931029 30.261719,41.931025 C 30.584633,41.931029 30.860674,41.994831 31.089844,42.122431 C 31.321611,42.247435 31.513017,42.440143 31.664062,42.700556 M 29.214844,44.2279 C 29.214843,44.756547 29.322915,45.171911 29.539062,45.473993 C 29.757811,45.773473 30.05729,45.923213 30.4375,45.923212 C 30.817706,45.923213 31.117184,45.773473 31.335938,45.473993 C 31.554684,45.171911 31.664059,44.756547 31.664062,44.2279 C 31.664059,43.699256 31.554684,43.285194 31.335938,42.985712 C 31.117184,42.683632 30.817706,42.532591 30.4375,42.532587 C 30.05729,42.532591 29.757811,42.683632 29.539062,42.985712 C 29.322915,43.285194 29.214843,43.699256 29.214844,44.2279 M 33.863281,42.036493 L 34.582031,42.036493 L 34.582031,46.411493 L 33.863281,46.411493 L 33.863281,42.036493 M 33.863281,40.333368 L 34.582031,40.333368 L 34.582031,41.243525 L 33.863281,41.243525 L 33.863281,40.333368 M 38.960938,42.700556 L 38.960938,40.333368 L 39.679688,40.333368 L 39.679688,46.411493 L 38.960938,46.411493 L 38.960938,45.755243 C 38.809892,46.01566 38.618486,46.209671 38.386719,46.337275 C 38.157549,46.462274 37.881508,46.524774 37.558594,46.524775 C 37.029946,46.524774 36.598957,46.313837 36.265625,45.891962 C 35.934895,45.470088 35.769531,44.915401 35.769531,44.2279 C 35.769531,43.540402 35.934895,42.985715 36.265625,42.563837 C 36.598957,42.141966 37.029946,41.931029 37.558594,41.931025 C 37.881508,41.931029 38.157549,41.994831 38.386719,42.122431 C 38.618486,42.247435 38.809892,42.440143 38.960938,42.700556 M 36.511719,44.2279 C 36.511718,44.756547 36.61979,45.171911 36.835938,45.473993 C 37.054686,45.773473 37.354165,45.923213 37.734375,45.923212 C 38.114581,45.923213 38.414059,45.773473 38.632812,45.473993 C 38.851559,45.171911 38.960934,44.756547 38.960938,44.2279 C 38.960934,43.699256 38.851559,43.285194 38.632812,42.985712 C 38.414059,42.683632 38.114581,42.532591 37.734375,42.532587 C 37.354165,42.532591 37.054686,42.683632 36.835938,42.985712 C 36.61979,43.285194 36.511718,43.699256 36.511719,44.2279 M 42.855469,42.5404 C 42.47005,42.540403 42.165363,42.691445 41.941406,42.993525 C 41.717447,43.293007 41.605468,43.704465 41.605469,44.2279 C 41.605468,44.751339 41.716145,45.164099 41.9375,45.466181 C 42.161457,45.765661 42.467446,45.9154 42.855469,45.9154 C 43.238278,45.9154 43.541664,45.764359 43.765625,45.462275 C 43.98958,45.160192 44.101559,44.748735 44.101562,44.2279 C 44.101559,43.709673 43.98958,43.299517 43.765625,42.997431 C 43.541664,42.692747 43.238278,42.540403 42.855469,42.5404 M 42.855469,41.931025 C 43.480466,41.931029 43.971351,42.134154 44.328125,42.5404 C 44.684892,42.946653 44.863277,43.509152 44.863281,44.2279 C 44.863277,44.944047 44.684892,45.506546 44.328125,45.9154 C 43.971351,46.32165 43.480466,46.524774 42.855469,46.524775 C 42.227863,46.524774 41.735676,46.32165 41.378906,45.9154 C 41.024739,45.506546 40.847656,44.944047 40.847656,44.2279 C 40.847656,43.509152 41.024739,42.946653 41.378906,42.5404 C 41.735676,42.134154 42.227863,41.931029 42.855469,41.931025"
       id="flowRoot3815" />
  </g>
</svg>
